<?xml version="1.0" encoding="utf-8"?>
<!-- Generator: Adobe Illustrator 22.0.1, SVG Export Plug-In . SVG Version: 6.00 Build 0)  -->
<svg version="1.1" id="Layer_1" xmlns="http://www.w3.org/2000/svg" xmlns:xlink="http://www.w3.org/1999/xlink" x="0px" y="0px"
	 viewBox="0 0 30 60" style="enable-background:new 0 0 30 60;" xml:space="preserve">
<style type="text/css">
	.st0{fill:#F8B538;stroke:#F8B538;stroke-miterlimit:10;}
</style>
<g>
	<g>
		<path class="st0" d="M19.7,43.2c0,3.8,0,7.6,0,11.4c0,0.9-0.1,1-1,1c-2.8,0-5.5,0-8.3,0c-0.9,0-1-0.1-1-1c0-7.7,0-15.4,0-23.1
			c0-0.6-0.1-0.8-0.7-0.7c-1.6,0-3.3,0-5,0c-0.8,0-0.9-0.1-0.9-0.9c0-2.5,0-5.1,0-7.6c0-0.6,0.2-0.9,0.8-0.8c1.7,0,3.4,0,5,0
			c0.6,0,0.8-0.1,0.7-0.7c0-2.1,0-4.3,0-6.4c0-1.7,0.2-3.4,0.8-5c0.9-2.7,3-4.3,5.8-4.4C19.5,5,23,5,26.4,5c0.5,0,0.7,0.2,0.7,0.7
			c0,2.5,0,5,0,7.5c0,0.6-0.3,0.7-0.8,0.7c-1.3,0-2.6,0-3.9,0c-1.8,0-2.6,0.8-2.6,2.5c-0.1,1.6,0,3.1,0,4.7c0,0.4,0.2,0.4,0.5,0.4
			c2,0,3.9,0,5.9,0c0.9,0,1,0.1,1,1c0,2.5,0,4.9,0,7.4c0,0.9-0.1,1-1,1c-1.9,0-3.9,0-5.8,0c-0.5,0-0.6,0.1-0.6,0.6
			C19.7,35.4,19.7,39.3,19.7,43.2z M10.5,42.2c0,3.9,0,7.8,0,11.7c0,0.5,0.1,0.6,0.6,0.6c2.2,0,4.5,0,6.7,0c0.6,0,0.8-0.1,0.8-0.7
			c0-7.7,0-15.3,0-22.9c0-1,0-1.1,1.1-1.1c1.9,0,3.8,0,5.7,0c0.4,0,0.6-0.1,0.6-0.5c0-2,0-4,0-6.1c0-0.5-0.1-0.6-0.6-0.6
			c-2,0-3.9,0-5.9,0c-0.6,0-0.9-0.2-0.9-0.9c0-1.7,0-3.4,0-5.1c0-2.5,1.3-3.7,3.8-3.8c1,0,2.1,0,3.1,0c0.4,0,0.5-0.1,0.5-0.5
			c0-1.9,0-3.8,0-5.7c0-0.3,0-0.5-0.4-0.5c-3.1,0-6.2,0-9.3,0c-2.5,0-4.2,1.4-5,3.8c-0.5,1.4-0.7,2.9-0.7,4.4c0,2.5,0,4.9,0,7.4
			c0,0.8-0.1,0.9-0.9,0.9c-1.7,0-3.4,0-5.1,0c-0.4,0-0.6,0.1-0.6,0.6c0,2,0,4,0,6.1c0,0.4,0.1,0.6,0.6,0.6c1.6,0,3.3,0,4.9,0
			c1.1,0,1.2,0,1.2,1.1C10.5,34.7,10.5,38.5,10.5,42.2z"/>
	</g>
</g>
</svg>
