<?xml version="1.0" encoding="utf-8"?>
<!-- Generator: Adobe Illustrator 22.0.1, SVG Export Plug-In . SVG Version: 6.00 Build 0)  -->
<svg version="1.1" id="Layer_1" xmlns="http://www.w3.org/2000/svg" xmlns:xlink="http://www.w3.org/1999/xlink" x="0px" y="0px"
	 viewBox="0 0 100.5 100" style="enable-background:new 0 0 100.5 100;" xml:space="preserve">
<style type="text/css">
	.st0{fill:#F8B538;stroke:#F8B538;stroke-miterlimit:10;}
	.st1{fill:none;}
</style>
<g id="Layer_x0020_1">
	<path class="st0" d="M84.7,28.9c-1.1-7.7-5-13.8-10.7-18c-6.2-4.6-14.4-7-23.2-7c-0.9,0-1.7,0-2.7,0.1c-0.9,0-1.7,0.1-2.7,0.2
		c-8.9,1-16.5,4.9-21.9,10.9C18.3,21.1,15.1,29,15,37.9c0.1,4.6,0.9,8.6,2.9,11.7c1.8,2.9,4.6,4.9,8.7,6c2.2-4.2,0.8-6.4-0.6-8.8
		c-0.9-1.5-1.9-3.1-2.3-5.3c-1.1-6.4,0.4-12.3,3.4-17.2c2.8-4.5,6.9-8.1,11.5-10.5s9.9-3.6,15.1-3.2c5.4,0.4,10.6,2.6,14.9,6.9
		c3.9,3.9,5.6,10.4,5.6,17.3c0,5.1-1.1,10.3-2.9,14.9c-1.9,4.6-4.7,8.5-8.3,10.6c-2.8,1.7-5.9,2.3-9.5,1.6l0,0
		c-7-1.4-7.8-6.3-6.6-12.2c0.5-2.4,1.3-5.1,2.2-7.7c2.3-7.3,4.6-14.5-1.1-16.8l0,0c-1.8-0.7-3.5-0.8-4.9-0.4c-1.9,0.6-3.5,2-4.7,3.9
		c-1.3,2-2.2,4.4-2.6,7c-0.6,3.7-0.1,7.6,1.6,10.5l0.1,0.7c-0.8,4.1-1.9,8.1-3,12.2c-2.9,10.7-5.8,21.7-4.3,34.9
		c3.5-3,5.9-7.1,7.8-11.8c2.1-5.4,3.5-11.6,4.6-17.9l0.3-1.4l1.2,0.7c1.2,0.7,2.2,1.4,3.1,2c2.7,1.8,5,3.5,8.9,3.8l0,0
		c1.8,0.1,3.6,0.1,5.3-0.1c6.9-1,12.4-4.8,16.4-10.3c4.1-5.6,6.5-12.8,7-20.3C85.2,35.3,85.1,32.1,84.7,28.9L84.7,28.9L84.7,28.9z
		 M75.2,9.4c6.1,4.5,10.4,11,11.5,19.3l0,0c0.5,3.3,0.6,6.7,0.3,10c-0.6,7.9-3.2,15.5-7.4,21.3C75.3,65.9,69.3,70,61.8,71.1
		C60,71.4,58,71.4,56,71.3l0,0c-4.5-0.4-7-2.1-9.9-4.1c-0.6-0.4-1.2-0.8-1.7-1.2c-1.2,5.9-2.5,11.7-4.5,16.8
		c-2.2,5.6-5.2,10.4-9.9,13.8l-1.3,1l-0.2-1.7c-2-14.4,1.1-26.1,4.1-37.5c1.1-3.9,2.1-7.8,2.9-11.7c-1.8-3.3-2.3-7.5-1.7-11.5
		c0.4-2.9,1.4-5.6,2.9-7.8c1.5-2.3,3.5-4,5.9-4.7c1.8-0.6,4-0.5,6.2,0.4l0,0c7.5,2.9,4.9,11.1,2.3,19.3C50.3,45,49.5,47.6,49,50
		c-1,4.8-0.4,8.7,5,9.8l0,0c3,0.6,5.7,0,8.1-1.4c3.2-1.9,5.8-5.4,7.5-9.7c1.8-4.3,2.8-9.3,2.8-14.1c0-6.4-1.6-12.3-5-15.8
		c-3.9-4-8.7-5.9-13.6-6.3c-4.7-0.4-9.7,0.7-14,3c-4.4,2.3-8.1,5.6-10.7,9.8c-2.8,4.5-4.1,9.9-3.1,15.8c0.3,1.8,1.2,3.2,2,4.6
		c1.8,3,3.5,5.8,0.3,11.5l-0.4,0.6l-0.9-0.2c-5.1-1.1-8.5-3.6-10.7-7c-2.2-3.4-3.1-7.7-3.2-12.8l0,0c0.1-9.4,3.5-17.7,9.2-24
		S36,3.4,45.4,2.3c0.9-0.1,1.8-0.2,2.8-0.2C49,2,50,2,50.9,2C60,2,68.7,4.5,75.2,9.4L75.2,9.4z"/>
</g>
<rect x="211.3" y="-391.5" class="st1" width="280.2" height="280.2"/>
</svg>
