<?xml version="1.0" encoding="utf-8"?>
<!-- Generator: Adobe Illustrator 22.0.1, SVG Export Plug-In . SVG Version: 6.00 Build 0)  -->
<svg version="1.1" id="Layer_1" xmlns="http://www.w3.org/2000/svg" xmlns:xlink="http://www.w3.org/1999/xlink" x="0px" y="0px"
	 viewBox="0 0 50 40" style="enable-background:new 0 0 50 40;" xml:space="preserve">
<style type="text/css">
	.st0{fill:#684F40;stroke:#684F40;stroke-miterlimit:10;}
</style>
<g>
	<g>
		<path class="st0" d="M45.6,6.7c0.4,0,0.8-0.1,1.1-0.3c0.6-0.2,1-0.1,1.3,0.2C48.3,7,48.3,7.4,48,7.8c-1.1,1.5-2.4,2.8-4,3.9
			c-0.2,0.1-0.3,0.2-0.3,0.5c0.3,4.1-0.8,8-2.8,11.6c-2.4,4.4-5.9,7.9-10.4,10.5c-3.1,1.8-6.4,2.9-10,3.3c-5.7,0.7-11-0.4-16.1-2.7
			c-0.7-0.3-1.4-0.7-2.1-1c-0.5-0.3-0.7-0.7-0.6-1.1c0.1-0.4,0.6-0.7,1.1-0.7c2.8,0.3,5.5-0.1,8.1-1c0.8-0.3,1.6-0.6,2.4-1.1
			c-1.4-0.3-2.7-0.8-3.8-1.6c-1.7-1.1-2.9-2.5-3.8-4.2c-0.2-0.4-0.2-0.7,0.1-1c0.3-0.3,0.7-0.4,1.1-0.3c0.3,0.1,0.7,0.2,1,0.2
			c-0.1-0.2-0.3-0.3-0.5-0.4c-2.4-1.6-4-3.6-4.5-6.3c-0.1-0.5-0.2-1-0.2-1.6c0-0.4,0.2-0.7,0.5-0.9s0.7-0.1,1.1,0.1
			c0.3,0.2,0.5,0.3,0.8,0.5c0.1-0.3-0.1-0.4-0.2-0.5C3.3,11,3,7.9,4.8,4.7C4.9,4.5,4.9,4.4,5,4.3c0.5-0.7,1.2-0.7,1.8-0.1
			c1.5,1.8,3.3,3.3,5.3,4.6c3.3,2.1,7,3.3,11,3.7c0.4,0,0.4-0.1,0.4-0.4c0-2.2,0.5-4.3,1.9-6.2c1.2-1.6,3-2.5,4.9-3.2
			c3.6-1.2,6.9-0.6,9.8,1.6c0.4,0.3,0.7,0.3,1.1,0.2c1.5-0.4,2.9-0.9,4.3-1.6c0.4-0.2,0.8-0.2,1.1,0C47,3.3,47.1,3.7,47,4.1
			C46.7,5,46.2,5.9,45.6,6.7z M43.6,6c-0.3-0.1-0.4,0-0.5,0.1c-0.8,0.3-1.6,0.5-2.4,0.6c-0.4,0.1-0.7,0-0.9-0.2
			c-0.2-0.1-0.4-0.3-0.6-0.5c-1.9-1.4-4-2.2-6.4-1.8c-1.9,0.3-3.7,0.9-5.1,2.3c-1.9,1.9-2.3,4.2-1.9,6.7c0.1,0.8-0.3,1.3-1.1,1.3
			c-0.9,0-1.8-0.1-2.7-0.3c-3.9-0.5-7.6-1.8-10.9-3.9C9.2,9.1,7.6,7.8,6.2,6.4C5.7,7.6,5.5,8.7,5.7,9.9c0.4,2.2,1.4,4,3.4,5.3
			c0.4,0.2,0.5,0.5,0.4,1c-0.1,0.4-0.4,0.7-0.8,0.7C8.4,17,7.9,17,7.5,17c-0.7,0-1.4-0.2-2.1-0.4c0,0.1,0,0.1,0,0.1
			c1.1,3,3.3,4.8,6.6,5.7c0.4,0.1,0.8,0.3,0.9,0.7c0.1,0.4-0.1,0.8-0.4,1c-0.5,0.4-1.1,0.6-1.7,0.7c-0.6,0.1-1.2,0.1-1.8,0.2
			c0.1,0.2,0.2,0.3,0.4,0.4c1.8,1.9,4.2,2.8,7,2.9c0.5,0,0.8,0.2,1,0.7c0.2,0.4,0,0.8-0.4,1.1c-0.1,0.1-0.3,0.2-0.4,0.3
			c-2,1.5-4.3,2.4-6.8,3c-0.8,0.2-1.6,0.3-2.4,0.4C7.4,34,7.4,34,7.4,34c4.3,1.6,8.6,2.2,13.2,1.6c5.4-0.7,10-3.1,13.9-6.7
			c2-1.9,3.6-3.9,4.8-6.3c1.8-3.4,2.8-7,2.4-10.9c-0.1-0.5,0.1-0.9,0.6-1.2c0.7-0.4,1.3-0.9,2-1.6c-0.7,0.1-1.2,0.2-1.8,0.2
			c-0.7,0-1.1-0.2-1.3-0.7c-0.1-0.5,0.1-0.9,0.7-1.2C42.5,7.1,43,6.6,43.6,6z"/>
	</g>
</g>
</svg>
