<?xml version="1.0" encoding="utf-8"?>
<!-- Generator: Adobe Illustrator 22.0.1, SVG Export Plug-In . SVG Version: 6.00 Build 0)  -->
<svg version="1.1" id="Layer_1" xmlns="http://www.w3.org/2000/svg" xmlns:xlink="http://www.w3.org/1999/xlink" x="0px" y="0px"
	 viewBox="0 0 85 75" style="enable-background:new 0 0 85 75;" xml:space="preserve">
<style type="text/css">
	.st0{fill:#F8B538;stroke:#F8B538;stroke-miterlimit:10;}
</style>
<g>
	<g>
		<path class="st0" d="M75.5,13.7c0.7,0.1,1.2-0.3,1.8-0.5c0.9-0.3,1.6-0.3,2.1,0.4c0.5,0.6,0.4,1.3-0.1,2.1
			c-1.7,2.5-3.8,4.6-6.2,6.5c-0.3,0.2-0.5,0.4-0.5,0.8c0.4,6.9-1.2,13.3-4.4,19.4C64.4,49.7,59,55.6,52,60c-4.8,2.9-10,4.8-15.6,5.5
			c-8.9,1.1-17.2-0.7-25.2-4.5C10.1,60.5,9,59.9,8,59.4c-0.8-0.4-1.1-1.1-0.9-1.9c0.2-0.7,0.9-1.2,1.8-1.1c4.4,0.4,8.6-0.1,12.7-1.6
			c1.3-0.5,2.5-1,3.8-1.8c-2.2-0.6-4.2-1.4-5.9-2.6c-2.6-1.8-4.6-4.2-5.9-7c-0.3-0.6-0.3-1.2,0.1-1.7c0.4-0.6,1-0.7,1.7-0.6
			c0.5,0.1,1,0.3,1.6,0.3c-0.2-0.3-0.5-0.4-0.7-0.6c-3.7-2.6-6.2-6-7-10.6C9.1,29.2,9,28.3,9,27.5c0-0.7,0.3-1.2,0.8-1.4
			s1.1-0.3,1.7,0.1c0.4,0.3,0.8,0.6,1.3,0.9c0.1-0.4-0.2-0.6-0.3-0.9C9.3,21,9,15.7,11.8,10.3c0.1-0.2,0.2-0.4,0.3-0.6
			c0.7-1.2,1.9-1.2,2.8-0.2c2.4,3,5.2,5.5,8.3,7.7c5.2,3.5,11,5.5,17.2,6.2c0.6,0.1,0.6-0.2,0.6-0.6c0-3.7,0.8-7.2,3-10.3
			c1.9-2.7,4.7-4.3,7.7-5.3c5.6-1.9,10.7-1,15.3,2.8c0.6,0.5,1.1,0.5,1.7,0.3c2.3-0.8,4.6-1.6,6.7-2.8c0.6-0.3,1.2-0.4,1.8,0.1
			c0.6,0.4,0.8,1.1,0.5,1.8C77.3,10.9,76.5,12.3,75.5,13.7z M72.3,12.6c-0.4-0.2-0.6,0-0.8,0.1c-1.3,0.4-2.5,0.8-3.8,1.1
			c-0.6,0.1-1,0-1.4-0.4c-0.3-0.3-0.6-0.5-0.9-0.8c-2.9-2.4-6.2-3.7-10.1-3.1c-3,0.5-5.8,1.6-7.9,3.9c-2.9,3.2-3.6,7-3,11.2
			c0.2,1.3-0.4,2.2-1.8,2.1c-1.4-0.1-2.9-0.2-4.3-0.4c-6.2-0.9-11.8-3.1-17-6.6c-2.7-1.8-5.1-4-7.4-6.5c-0.8,2-1,4-0.7,6
			c0.6,3.7,2.3,6.7,5.4,8.8c0.6,0.4,0.8,0.9,0.7,1.6c-0.2,0.7-0.6,1.1-1.3,1.3C17.3,31,16.6,31,15.9,31c-1.1,0-2.2-0.3-3.3-0.7
			c0,0.1-0.1,0.2,0,0.2c1.7,5.1,5.2,8.1,10.3,9.6c0.7,0.2,1.2,0.5,1.4,1.2c0.2,0.8-0.1,1.3-0.7,1.7c-0.8,0.6-1.7,1-2.7,1.2
			c-0.9,0.2-1.8,0.3-2.9,0.3c0.2,0.3,0.4,0.5,0.6,0.7c2.9,3.3,6.6,4.7,10.9,4.9c0.8,0,1.3,0.3,1.6,1.1c0.3,0.7,0,1.3-0.6,1.8
			c-0.2,0.2-0.4,0.3-0.6,0.5c-3.1,2.5-6.7,4.1-10.6,5.1c-1.2,0.3-2.4,0.5-3.8,0.7c0.2,0.1,0.2,0.2,0.3,0.2
			c6.6,2.6,13.4,3.7,20.5,2.7C44.9,61,52,57.1,58,51.1c3.1-3.1,5.6-6.6,7.5-10.5c2.9-5.8,4.3-11.8,3.8-18.3
			c-0.1-0.9,0.2-1.5,0.9-2.1c1.1-0.7,2.1-1.6,3.1-2.6c-1,0.2-1.9,0.3-2.9,0.4c-1.1,0.1-1.8-0.3-2-1.1c-0.2-0.8,0.1-1.5,1.1-2
			C70.7,14.4,71.5,13.6,72.3,12.6z"/>
	</g>
</g>
</svg>
