<?xml version="1.0" encoding="utf-8"?>
<!-- Generator: Adobe Illustrator 22.0.1, SVG Export Plug-In . SVG Version: 6.00 Build 0)  -->
<svg version="1.1" id="Layer_1" xmlns="http://www.w3.org/2000/svg" xmlns:xlink="http://www.w3.org/1999/xlink" x="0px" y="0px"
	 viewBox="0 0 400 100" style="enable-background:new 0 0 400 100;" xml:space="preserve">
<style type="text/css">
	.st0{fill:none;}
	.st1{fill:#F7A41A;}
	.st2{fill:#EFEBD8;}
</style>
<g>
	<path class="st0" d="M97.6,31c-13.7,0-27.4,0-41,0c-0.3,0-0.4-0.1-0.5-0.4c-0.6-2.1-1.3-4.2-1.9-6.3c-0.3-1.1-1.2-1.8-2.3-1.8
		c-2.5,0-5,0-7.6,0c-0.5,0-1,0.2-1.4,0.5c-0.8,0.6-1.1,1.7-0.8,2.7c0.3,1,1.2,1.6,2.3,1.6c1.8,0,3.5,0,5.3,0c0.3,0,0.4,0.1,0.4,0.3
		c3,10,5.9,20,8.9,30c0.1,0.2,0.1,0.4-0.1,0.5c-0.6,1.1-1,2.3-1.2,3.5c-0.2,2.2,0.7,4,2.6,4.9c1.4,0.6,2.8,0.8,4.3,0.7
		c3.1-0.2,6.2-0.5,9.3-0.8c4.1-0.3,8.3-0.6,13.1-0.8c1.6-0.1,3.8-0.1,6.1,0c1.1,0.1,2-0.8,2-1.9c0-1-0.8-1.9-1.9-2
		c-0.5,0-1.1-0.1-1.6-0.1c-3.9,0-7.7,0.2-11.6,0.4c-4.8,0.3-9.5,0.7-14.3,1.1c-0.9,0.1-1.8,0.2-2.7,0c-0.4-0.1-0.8-0.1-1.1-0.3
		c-0.3-0.1-0.4-0.4-0.4-0.7c0-0.4,0.1-0.9,0.3-1.3c0-0.1,0.1-0.2,0.3-0.2c4.6-0.5,9.2-1.1,13.9-1.7c5.9-0.7,11.8-1.4,17.8-2.2
		c1.2-0.1,2-0.9,2.2-2.1c0.2-1.3,0.5-2.7,0.8-4c1.1-5.7,2.2-11.4,3.3-17.1c0.2-0.9,0-1.7-0.7-2.3C99,31.1,98.3,31,97.6,31z
		 M71.9,36.1c0-0.2,0.1-0.3,0.3-0.3c1.6,0,3.2,0,4.7,0c1.6,0,3.1,0,4.7,0c0.2,0,0.3,0.1,0.3,0.3c0,2.4,0,4.8,0,7.3
		c0,0.2-0.1,0.3-0.3,0.3c-3.1,0-6.3,0-9.4,0c-0.2,0-0.3-0.1-0.3-0.3C71.9,40.9,71.9,38.5,71.9,36.1z M69.7,50.5c0,1.4,0,2.8,0,4.3
		c0,0.2,0,0.3-0.3,0.4c-1.8,0.2-3.6,0.4-5.4,0.7c-0.2,0-0.4,0-0.4-0.3c-0.9-3.1-1.8-6.2-2.8-9.2c-0.1-0.4-0.2-0.4,0.3-0.4
		c2.8,0,5.6,0,8.3,0c0.2,0,0.3,0.1,0.3,0.3C69.7,47.7,69.7,49.1,69.7,50.5z M69.7,43.3c0,0.2,0,0.3-0.3,0.3c-3.1,0-6.1,0-9.2,0
		c-0.2,0-0.3,0-0.4-0.2c-0.7-2.4-1.4-4.8-2.2-7.3c-0.1-0.3-0.1-0.3,0.2-0.3c1.9,0,3.8,0,5.7,0c1.9,0,3.8,0,5.7,0
		c0.2,0,0.3,0.1,0.3,0.3C69.7,38.5,69.7,40.9,69.7,43.3z M82,53.3c0,0.2,0,0.3-0.2,0.3c-3.2,0.4-6.4,0.8-9.5,1.1
		c-0.2,0-0.3,0-0.3-0.2c0-2.8,0-5.6,0-8.4c0-0.2,0.1-0.2,0.3-0.2c1.6,0,3.2,0,4.7,0c1.6,0,3.1,0,4.7,0c0.2,0,0.3,0.1,0.3,0.3
		C82,48.6,82,51,82,53.3z M92.8,46.2c-0.4,2-0.8,4-1.2,6.1c0,0.1-0.1,0.2-0.2,0.2c-2.3,0.3-4.6,0.5-6.9,0.8c-0.2,0-0.2-0.1-0.2-0.2
		c0-0.8,0-1.6,0-2.4c0-1.5,0-3,0-4.5c0-0.2,0.1-0.3,0.3-0.3c1.3,0,2.6,0,4,0s2.7,0,4,0C92.8,45.9,92.9,46,92.8,46.2z M94.7,36.1
		c-0.5,2.4-0.9,4.8-1.4,7.3c0,0.2-0.1,0.3-0.3,0.3c-2.8,0-5.6,0-8.4,0c-0.2,0-0.3-0.1-0.3-0.3c0-2.4,0-4.8,0-7.2
		c0-0.2,0.1-0.3,0.3-0.3c1.7,0,3.3,0,5,0s3.3,0,4.9,0C94.7,35.8,94.7,35.8,94.7,36.1z"/>
	<path class="st0" d="M61.6,69.3c-2.6,0-4.9,2.1-4.9,4.8c0,2.7,2.2,4.9,4.8,4.9c2.7,0,4.9-2.1,4.9-4.8
		C66.5,71.5,64.3,69.3,61.6,69.3z"/>
	<ellipse transform="matrix(0.7067 -0.7075 0.7075 0.7067 -26.2635 84.9076)" class="st0" cx="89.3" cy="74.1" rx="4.9" ry="4.9"/>
	<g>
		<path class="st1" d="M60.3,43.1c-0.3-1.2-0.7-2.4-1-3.5c-0.3-1.1-0.7-2.2-1-3.3h5.3c1.8,0,3.7,0,5.5,0l0,6.9H60.3z"/>
		<path class="st1" d="M68.7,36.8l0,5.8l-8,0c-0.3-1.1-0.6-2.1-0.9-3.2c-0.3-0.9-0.5-1.8-0.8-2.7h4.7C65.3,36.8,67,36.8,68.7,36.8
			 M69.4,35.8c-1.9,0-3.8,0-5.7,0c-1.9,0-3.8,0-5.7,0c-0.3,0-0.3,0-0.2,0.3c0.7,2.4,1.4,4.8,2.2,7.3c0.1,0.2,0.2,0.2,0.4,0.2
			c3.1,0,6.1,0,9.2,0c0.2,0,0.3-0.1,0.3-0.3c0-2.4,0-4.8,0-7.3C69.7,35.8,69.6,35.8,69.4,35.8L69.4,35.8z"/>
	</g>
	<g>
		<path class="st1" d="M63.9,55.3c-0.5-1.5-0.9-3-1.3-4.5c-0.4-1.5-0.9-2.9-1.3-4.4h7.9l0,4.1l0,1.4c0,0.9,0,1.8,0,2.7
			C67.3,54.8,65.6,55.1,63.9,55.3z"/>
		<path class="st1" d="M68.7,46.9v3.6c0,0.5,0,0.9,0,1.4c0,0.7,0,1.5,0,2.3c-1.5,0.2-3,0.3-4.3,0.5c-0.4-1.4-0.8-2.7-1.2-4.1
			c-0.4-1.2-0.7-2.5-1.1-3.7H68.7 M69.4,45.9c-2.8,0-5.6,0-8.3,0c-0.5,0-0.4,0-0.3,0.4c0.9,3.1,1.8,6.2,2.8,9.2
			c0.1,0.2,0.2,0.3,0.3,0.3c0,0,0.1,0,0.1,0c1.8-0.2,3.6-0.5,5.4-0.7c0.3,0,0.3-0.1,0.3-0.4c0-1.4,0-2.8,0-4.3c0-1.4,0-2.9,0-4.3
			C69.7,46,69.6,45.9,69.4,45.9L69.4,45.9z"/>
	</g>
	<g>
		<path class="st1" d="M72.4,46.4l4.5,0c1.5,0,3,0,4.5,0l0,6.7l-9,1.1L72.4,46.4z"/>
		<path class="st1" d="M81,46.9l0,5.8l-4.2,0.5l-3.9,0.5v-6.7h4C78.3,46.9,79.6,46.9,81,46.9 M81.7,45.9c-1.6,0-3.2,0-4.7,0
			c-1.6,0-3.2,0-4.7,0c-0.2,0-0.3,0-0.3,0.2c0,2.8,0,5.6,0,8.4c0,0.2,0,0.2,0.2,0.2c0,0,0.1,0,0.1,0c3.2-0.4,6.4-0.8,9.5-1.1
			c0.2,0,0.2-0.1,0.2-0.3c0-2.4,0-4.8,0-7.1C82,46,81.9,45.9,81.7,45.9L81.7,45.9z"/>
	</g>
	<g>
		<rect x="72.4" y="36.3" class="st1" width="9" height="6.8"/>
		<path class="st1" d="M81,36.8v5.8h-8v-5.8h4H81 M81.7,35.8c-1.6,0-3.1,0-4.7,0c-1.6,0-3.2,0-4.7,0c-0.2,0-0.3,0.1-0.3,0.3
			c0,2.4,0,4.9,0,7.3c0,0.2,0.1,0.3,0.3,0.3c3.1,0,6.3,0,9.4,0c0.2,0,0.3-0.1,0.3-0.3c0-2.4,0-4.9,0-7.3
			C82,35.8,81.9,35.8,81.7,35.8L81.7,35.8z"/>
	</g>
	<g>
		<path class="st1" d="M84.8,46.4l7.5,0c-0.4,1.9-0.7,3.7-1.1,5.5c-2.1,0.3-4.3,0.5-6.4,0.8L84.8,46.4z"/>
		<path class="st1" d="M91.6,46.9c-0.3,1.5-0.6,3.1-0.9,4.6c-1.8,0.2-3.6,0.4-5.5,0.7v-1.5v-3.8h3.3H91.6 M92.6,45.9
			c-1.4,0-2.7,0-4,0s-2.7,0-4,0c-0.2,0-0.3,0.1-0.3,0.3c0,1.5,0,3,0,4.5c0,0.8,0,1.6,0,2.4c0,0.1,0,0.2,0.1,0.2c0,0,0,0,0.1,0
			c2.3-0.3,4.6-0.6,6.9-0.8c0.2,0,0.2-0.1,0.2-0.2c0.4-2,0.8-4,1.2-6.1C92.9,46,92.8,45.9,92.6,45.9L92.6,45.9z"/>
	</g>
	<g>
		<path class="st1" d="M84.7,43.1l0-6.8l9.4,0c-0.4,2.2-1.3,6.8-1.3,6.8H84.7z"/>
		<path class="st1" d="M93.5,36.8c-0.4,1.9-0.7,3.9-1.1,5.8l-7.2,0v-5.8h4.3H93.5 M94.4,35.8c-1.6,0-3.3,0-4.9,0s-3.3,0-5,0
			c-0.2,0-0.3,0.1-0.3,0.3c0,2.4,0,4.8,0,7.2c0,0.2,0.1,0.3,0.3,0.3c2.8,0,5.6,0,8.4,0c0.2,0,0.3-0.1,0.3-0.3
			c0.5-2.4,0.9-4.9,1.4-7.3C94.7,35.8,94.7,35.8,94.4,35.8L94.4,35.8z"/>
	</g>
	<g>
		<path class="st1" d="M32,90.5c-6.3,0-11.5-5.2-11.5-11.5V19c0-6.3,5.2-11.5,11.5-11.5h306c6.3,0,11.5,5.2,11.5,11.5v60
			c0,6.3-5.2,11.5-11.5,11.5H32z M89.3,68.8c-3,0-5.4,2.4-5.4,5.4c0,3,2.4,5.4,5.4,5.4c3,0,5.4-2.4,5.4-5.4
			C94.6,71.2,92.2,68.8,89.3,68.8z M61.5,68.8c-2.9,0-5.3,2.4-5.3,5.3c0,3,2.4,5.4,5.3,5.4c0,0,0,0,0,0c3,0,5.4-2.4,5.4-5.3
			c0-1.4-0.5-2.8-1.5-3.8C64.4,69.3,63,68.8,61.5,68.8L61.5,68.8z M58.6,57.8c0,0.1,0,0.1,0,0.2c-0.7,1.3-1.1,2.5-1.2,3.7
			c-0.3,2.4,0.8,4.4,2.9,5.4c1.2,0.5,2.5,0.8,3.8,0.8c0.3,0,0.5,0,0.8,0c1.3-0.1,2.5-0.2,3.8-0.3c1.9-0.2,3.7-0.3,5.6-0.4
			c4.9-0.4,8.9-0.6,13-0.8c1,0,2.2-0.1,3.6-0.1c0.8,0,1.6,0,2.4,0l0.1,0c1.3,0,2.4-1,2.4-2.3c0-1.3-1-2.4-2.3-2.5
			c-0.6,0-1.1-0.1-1.6-0.1l-0.7,0c-3.7,0-7.4,0.2-11,0.4c-5,0.3-10,0.7-14.3,1.1l-0.2,0c-0.5,0-0.9,0.1-1.4,0.1
			c-0.3,0-0.6,0-0.9-0.1c-0.3,0-0.7-0.1-1-0.3c-0.1-0.1-0.1-0.1-0.1-0.2c0-0.3,0.1-0.7,0.2-1c4.6-0.5,9.2-1.1,13.8-1.7
			c2.9-0.3,5.8-0.7,8.7-1.1c3-0.4,6-0.7,9-1.1c1.4-0.2,2.4-1.1,2.7-2.5c0.1-0.7,0.3-1.3,0.4-2c0.1-0.7,0.3-1.3,0.4-2
			c0.5-2.8,1.1-5.7,1.6-8.5c0.6-2.8,1.1-5.7,1.7-8.5c0.2-1.1-0.1-2-0.8-2.8c-0.5-0.6-1.3-0.8-2.2-0.8h-41l-1.9-6.3
			c-0.4-1.3-1.5-2.2-2.8-2.2c-0.8,0-1.7,0-2.5,0l-5,0c-0.6,0-1.2,0.2-1.8,0.6c-1,0.7-1.4,2-1,3.2c0.4,1.2,1.5,2,2.7,2l3.5,0
			c0.6,0,1.2,0,1.7,0L58.6,57.8z"/>
		<path class="st1" d="M338,8c6.1,0,11,4.9,11,11v60c0,6.1-4.9,11-11,11H32c-6.1,0-11-4.9-11-11V19c0-6.1,4.9-11,11-11H338
			 M47.9,28.4c0.5,0,0.9,0,1.4,0c1.4,4.9,2.9,9.7,4.3,14.6c1.5,5,3,9.9,4.4,14.9c-0.7,1.3-1.1,2.6-1.2,3.8c-0.3,2.6,0.9,4.8,3.2,5.9
			c1.2,0.6,2.6,0.9,4,0.9c0.3,0,0.5,0,0.8,0c1.2-0.1,2.5-0.2,3.7-0.3c1.8-0.2,3.7-0.3,5.6-0.5c3.3-0.3,7.7-0.6,13-0.8
			c0.9,0,2.1-0.1,3.6-0.1c0.8,0,1.7,0,2.4,0c0.1,0,0.1,0,0.1,0c1.6,0,2.9-1.2,2.9-2.8c0-1.6-1.2-2.9-2.8-3l-0.1,0
			c-0.5,0-1-0.1-1.6-0.1c0,0,0,0,0,0l-0.7,0c-3.7,0-7.4,0.2-11,0.4c-5,0.3-10.1,0.7-14.3,1.1l-0.2,0c-0.5,0-0.9,0.1-1.3,0.1
			c-0.3,0-0.6,0-0.9-0.1c-0.2,0-0.4-0.1-0.7-0.2c0-0.1,0-0.3,0.1-0.4c4.1-0.5,8.8-1,13.5-1.6c3-0.4,5.9-0.7,8.9-1.1
			c3-0.4,5.9-0.7,8.9-1.1c1.7-0.2,2.8-1.3,3.1-2.9c0.1-0.7,0.3-1.3,0.4-2c0.1-0.7,0.3-1.3,0.4-2c0.5-2.8,1.1-5.7,1.6-8.5
			c0.6-2.8,1.1-5.7,1.6-8.5c0.3-1.3-0.1-2.4-1-3.2c-0.7-0.7-1.5-1-2.6-1L57,30l-0.8-2.8L55.2,24c-0.5-1.5-1.7-2.5-3.3-2.5
			c-0.8,0-1.7,0-2.5,0c-0.8,0-1.7,0-2.5,0c-0.8,0-1.7,0-2.5,0c-0.8,0-1.5,0.3-2.1,0.7c-1.1,0.9-1.6,2.4-1.1,3.8
			c0.5,1.4,1.8,2.3,3.2,2.3c0.6,0,1.2,0,1.8,0C46.8,28.4,47.3,28.4,47.9,28.4 M61.6,80c3.2,0,5.8-2.6,5.9-5.8c0-1.6-0.6-3.1-1.7-4.2
			c-1.1-1.1-2.6-1.7-4.2-1.7l-0.1,0h0c-3.2,0-5.8,2.6-5.8,5.8C55.7,77.3,58.3,80,61.6,80L61.6,80 M89.3,80c3.2,0,5.9-2.6,5.9-5.9
			c0-3.2-2.6-5.9-5.9-5.9c-3.2,0-5.9,2.6-5.9,5.9C83.4,77.4,86,80,89.3,80 M338,7H32c-6.6,0-12,5.4-12,12v60c0,6.6,5.4,12,12,12h306
			c6.6,0,12-5.4,12-12V19C350,12.4,344.6,7,338,7L338,7z M47.9,27.4c-1.2,0-2.4,0-3.5,0c-1,0-1.9-0.7-2.3-1.6c-0.3-1,0-2.1,0.8-2.7
			c0.4-0.3,0.9-0.5,1.4-0.5c1.7,0,3.4,0,5,0c0.8,0,1.7,0,2.5,0c1.1,0,2,0.7,2.3,1.8c0.6,2.1,1.3,4.2,1.9,6.3
			c0.1,0.3,0.2,0.4,0.5,0.4c13.7,0,27.3,0,41,0c0.7,0,1.4,0.2,1.9,0.7c0.7,0.6,0.9,1.4,0.7,2.3C99.1,39.7,98,45.3,96.9,51
			c-0.2,1.3-0.5,2.7-0.8,4c-0.2,1.2-1,1.9-2.2,2.1C88,57.8,82,58.6,76.1,59.3c-4.6,0.6-9.2,1.1-13.9,1.7C62.1,61,62,61,62,61.2
			c-0.1,0.4-0.3,0.8-0.3,1.3c0,0.3,0.1,0.5,0.4,0.7c0.4,0.2,0.7,0.3,1.1,0.3c0.3,0.1,0.7,0.1,1,0.1c0.6,0,1.1-0.1,1.7-0.1
			c4.7-0.4,9.5-0.8,14.3-1.1c3.7-0.2,7.3-0.4,11-0.4c0.2,0,0.4,0,0.7,0c0.5,0,1.1,0,1.6,0.1c1.1,0.1,1.9,0.9,1.9,2
			c0,1-0.8,1.9-1.9,1.9c0,0-0.1,0-0.1,0c-0.8,0-1.7,0-2.4,0c-1.4,0-2.6,0-3.6,0.1c-4.8,0.2-8.9,0.4-13.1,0.8
			c-3.1,0.2-6.2,0.5-9.3,0.8c-0.2,0-0.5,0-0.7,0c-1.2,0-2.5-0.2-3.6-0.8c-1.9-0.9-2.9-2.7-2.6-4.9c0.1-1.3,0.6-2.4,1.2-3.5
			c0.1-0.2,0.1-0.3,0.1-0.5c-3-10-5.9-20-8.9-30c-0.1-0.2-0.2-0.3-0.4-0.3C49.1,27.4,48.5,27.4,47.9,27.4L47.9,27.4z M61.6,79
			C61.6,79,61.5,79,61.6,79c-2.7,0-4.9-2.2-4.9-4.9c0-2.7,2.2-4.8,4.8-4.8c0,0,0,0,0,0c2.7,0,4.9,2.2,4.9,4.9
			C66.4,76.9,64.3,79,61.6,79L61.6,79z M89.3,79c-2.7,0-4.9-2.2-4.9-4.9c0-2.7,2.2-4.9,4.9-4.9c2.7,0,4.9,2.2,4.9,4.9
			C94.1,76.8,92,79,89.3,79L89.3,79z"/>
	</g>
</g>
<g>
	<path class="st2" d="M109.5,70.4V47.2c0-1.2,0.2-2.1,0.6-2.7c0.4-0.6,0.9-0.9,1.5-0.9c0.6,0,1.2,0.3,1.6,0.9
		c0.4,0.6,0.6,1.5,0.6,2.7v23.2c0,1.2-0.2,2.1-0.6,2.7c-0.4,0.6-0.9,0.9-1.6,0.9c-0.6,0-1.1-0.3-1.5-0.9S109.5,71.6,109.5,70.4z"/>
	<path class="st2" d="M121.7,54.8v0.7c0.7-1.3,1.4-2.2,2.3-2.8c0.8-0.6,1.8-0.9,2.8-0.9c1,0,1.9,0.3,2.8,0.9s1.4,1.5,1.8,2.7
		c0.3,0.7,0.4,1.4,0.5,2.2c0.1,0.8,0.1,1.8,0.1,3v10.2c0,1.1-0.2,1.9-0.5,2.5c-0.4,0.6-0.8,0.8-1.4,0.8c-0.6,0-1.1-0.3-1.4-0.9
		c-0.4-0.6-0.5-1.4-0.5-2.5v-9.1c0-1.8-0.2-3.2-0.5-4.1s-1.1-1.4-2.1-1.4c-0.7,0-1.3,0.3-1.9,0.9c-0.6,0.6-1,1.4-1.3,2.4
		c-0.2,0.8-0.3,2.3-0.3,4.6v6.9c0,1.1-0.2,1.9-0.6,2.5c-0.4,0.6-0.8,0.8-1.4,0.8c-0.6,0-1-0.3-1.4-0.9c-0.4-0.6-0.5-1.4-0.5-2.5
		V54.8c0-1,0.2-1.8,0.5-2.3c0.3-0.5,0.8-0.8,1.3-0.8c0.3,0,0.7,0.1,0.9,0.3c0.3,0.2,0.5,0.6,0.7,1C121.6,53.5,121.7,54.1,121.7,54.8
		z"/>
	<path class="st2" d="M158.3,68.9l-3.4-17.6l-3.4,17.6c-0.3,1.3-0.5,2.3-0.6,2.9c-0.2,0.6-0.4,1.1-0.8,1.6c-0.4,0.5-0.9,0.7-1.6,0.7
		c-0.5,0-1-0.1-1.3-0.4s-0.6-0.7-0.8-1.2c-0.2-0.5-0.4-1.1-0.5-1.8c-0.1-0.7-0.3-1.3-0.4-1.9L142,48.9c-0.2-1.1-0.3-2-0.3-2.6
		c0-0.8,0.2-1.4,0.6-1.9s0.9-0.8,1.4-0.8c0.8,0,1.3,0.3,1.6,1c0.3,0.7,0.5,1.7,0.7,3l2.7,17.2l3.1-16.1c0.2-1.2,0.4-2.2,0.6-2.8
		c0.2-0.6,0.5-1.2,0.9-1.7c0.4-0.5,1-0.7,1.7-0.7c0.7,0,1.3,0.2,1.7,0.7c0.4,0.5,0.7,1,0.8,1.6c0.2,0.6,0.4,1.5,0.6,2.8l3.1,16.1
		l2.7-17.2c0.1-0.9,0.3-1.6,0.4-2.1c0.1-0.5,0.3-1,0.6-1.4c0.3-0.4,0.7-0.6,1.3-0.6s1,0.3,1.4,0.8c0.4,0.5,0.6,1.2,0.6,1.9
		c0,0.5-0.1,1.4-0.3,2.6l-3.5,19.8c-0.2,1.3-0.4,2.3-0.6,2.9c-0.2,0.6-0.4,1.2-0.8,1.6c-0.4,0.5-0.9,0.7-1.6,0.7
		c-0.6,0-1.2-0.2-1.6-0.7c-0.4-0.5-0.7-1-0.8-1.5C158.8,71.2,158.6,70.2,158.3,68.9z"/>
	<path class="st2" d="M172.6,49.2c-0.5,0-1-0.2-1.4-0.7c-0.4-0.5-0.6-1.1-0.6-2c0-0.8,0.2-1.4,0.6-1.9c0.4-0.5,0.9-0.8,1.4-0.8
		c0.5,0,1,0.2,1.3,0.7c0.4,0.5,0.6,1.1,0.6,2c0,0.8-0.2,1.5-0.6,2C173.6,48.9,173.2,49.2,172.6,49.2z M174.6,54.8v15.8
		c0,1.1-0.2,1.9-0.6,2.5c-0.4,0.6-0.8,0.8-1.4,0.8c-0.6,0-1-0.3-1.4-0.9c-0.4-0.6-0.5-1.4-0.5-2.5V55c0-1.1,0.2-1.9,0.5-2.4
		c0.4-0.5,0.8-0.8,1.4-0.8c0.6,0,1,0.3,1.4,0.8C174.4,53.1,174.6,53.9,174.6,54.8z"/>
	<path class="st2" d="M182.1,54.8v0.7c0.7-1.3,1.4-2.2,2.3-2.8c0.8-0.6,1.8-0.9,2.8-0.9c1,0,1.9,0.3,2.8,0.9s1.4,1.5,1.8,2.7
		c0.3,0.7,0.4,1.4,0.5,2.2c0.1,0.8,0.1,1.8,0.1,3v10.2c0,1.1-0.2,1.9-0.5,2.5c-0.4,0.6-0.8,0.8-1.4,0.8c-0.6,0-1.1-0.3-1.4-0.9
		c-0.4-0.6-0.5-1.4-0.5-2.5v-9.1c0-1.8-0.2-3.2-0.5-4.1s-1.1-1.4-2.1-1.4c-0.7,0-1.3,0.3-1.9,0.9c-0.6,0.6-1,1.4-1.3,2.4
		c-0.2,0.8-0.3,2.3-0.3,4.6v6.9c0,1.1-0.2,1.9-0.6,2.5c-0.4,0.6-0.8,0.8-1.4,0.8c-0.6,0-1-0.3-1.4-0.9c-0.4-0.6-0.5-1.4-0.5-2.5
		V54.8c0-1,0.2-1.8,0.5-2.3c0.3-0.5,0.8-0.8,1.3-0.8c0.3,0,0.7,0.1,0.9,0.3c0.3,0.2,0.5,0.6,0.7,1C182.1,53.5,182.1,54.1,182.1,54.8
		z"/>
	<path class="st2" d="M206,71.5l-3.4-7.9l-2.1,2.8v4.4c0,1.1-0.2,1.9-0.6,2.4S199,74,198.5,74c-0.6,0-1.1-0.3-1.4-0.8
		c-0.3-0.6-0.5-1.4-0.5-2.5V47.3c0-1.2,0.2-2.1,0.5-2.8c0.3-0.6,0.8-1,1.4-1c0.6,0,1.1,0.3,1.4,0.9c0.4,0.6,0.5,1.4,0.5,2.5v13.3
		l4.4-6.5c0.5-0.8,1-1.4,1.2-1.6c0.3-0.3,0.6-0.4,1-0.4c0.5,0,0.9,0.2,1.2,0.7c0.3,0.4,0.5,1,0.5,1.6c0,0.8-0.5,1.9-1.6,3.2
		l-2.1,2.7l4,8.8c0.3,0.7,0.5,1.2,0.6,1.5c0.1,0.3,0.2,0.7,0.2,1c0,0.9-0.2,1.6-0.5,2.1c-0.3,0.5-0.8,0.8-1.3,0.8
		c-0.5,0-0.8-0.2-1.1-0.5C206.8,73.1,206.4,72.4,206,71.5z"/>
	<path class="st2" d="M222.9,64.2h-7.6c0,1.2,0.2,2.3,0.5,3.3c0.3,0.9,0.8,1.7,1.4,2.1s1.2,0.7,1.9,0.7c0.5,0,0.9-0.1,1.3-0.2
		c0.4-0.2,0.8-0.4,1.1-0.7s0.7-0.7,1-1.1c0.3-0.4,0.7-0.9,1.2-1.5c0.2-0.2,0.5-0.4,0.9-0.4c0.4,0,0.7,0.2,1,0.5
		c0.2,0.3,0.4,0.7,0.4,1.3c0,0.5-0.1,1.1-0.4,1.7c-0.3,0.7-0.7,1.3-1.3,1.9c-0.6,0.6-1.3,1.1-2.1,1.5c-0.8,0.4-1.8,0.6-2.9,0.6
		c-2.5,0-4.5-1-5.8-3c-1.4-2-2.1-4.7-2.1-8.2c0-1.6,0.2-3.1,0.5-4.5c0.3-1.4,0.8-2.6,1.5-3.6c0.7-1,1.5-1.7,2.4-2.3
		c1-0.5,2-0.8,3.2-0.8c1.5,0,2.8,0.5,3.9,1.4c1.1,0.9,1.9,2.1,2.5,3.5c0.5,1.4,0.8,2.9,0.8,4.4c0,1.4-0.3,2.3-0.8,2.7
		C224.7,64,223.9,64.2,222.9,64.2z M215.2,61.1h7.1c-0.1-1.9-0.5-3.3-1.1-4.2c-0.6-0.9-1.4-1.4-2.5-1.4c-1,0-1.8,0.5-2.4,1.4
		C215.7,57.9,215.4,59.3,215.2,61.1z"/>
	<path class="st2" d="M229.4,70.7V46.9c0-1.1,0.2-1.9,0.5-2.5s0.8-0.8,1.4-0.8c0.6,0,1.1,0.3,1.4,0.8c0.4,0.6,0.5,1.4,0.5,2.5v23.7
		c0,1.1-0.2,1.9-0.6,2.5c-0.4,0.6-0.8,0.8-1.4,0.8c-0.6,0-1-0.3-1.4-0.9C229.5,72.6,229.4,71.7,229.4,70.7z"/>
	<path class="st2" d="M239.3,55.1l2.5,12.2l2.3-11.4c0.2-1.2,0.4-2,0.6-2.4s0.3-0.8,0.7-1.2c0.3-0.4,0.8-0.6,1.4-0.6
		c0.6,0,1,0.2,1.4,0.6c0.3,0.4,0.6,0.8,0.7,1.3c0.1,0.5,0.3,1.3,0.6,2.4l2.3,11.4l2.6-12.2c0.2-0.9,0.3-1.5,0.4-1.9s0.3-0.7,0.5-1
		c0.2-0.3,0.6-0.5,1.1-0.5c0.5,0,0.9,0.2,1.2,0.7s0.5,1,0.5,1.6c0,0.6-0.1,1.4-0.4,2.5l-3.2,13.1c-0.3,1.1-0.5,1.9-0.6,2.4
		c-0.2,0.5-0.4,0.9-0.7,1.3c-0.3,0.4-0.8,0.6-1.4,0.6c-0.6,0-1.1-0.2-1.4-0.6c-0.3-0.4-0.6-0.9-0.8-1.5c-0.2-0.6-0.3-1.4-0.5-2.3
		l-2.2-10.7l-2.2,10.7c-0.3,1.5-0.6,2.6-0.9,3.4c-0.3,0.8-0.9,1.1-1.8,1.1c-0.4,0-0.8-0.1-1.1-0.4s-0.6-0.6-0.8-1
		c-0.2-0.4-0.4-0.9-0.5-1.5c-0.2-0.6-0.3-1.1-0.4-1.4L236,56.6c-0.3-1.2-0.5-2.1-0.5-2.5c0-0.6,0.2-1.1,0.5-1.6
		c0.3-0.5,0.7-0.7,1.2-0.7c0.6,0,1.1,0.3,1.3,0.8C238.8,53,239.1,53.9,239.3,55.1z"/>
	<path class="st2" d="M270.2,70.9c-0.9,1-1.9,1.8-2.7,2.3c-0.9,0.5-1.9,0.8-3,0.8c-1,0-1.9-0.3-2.6-0.8s-1.3-1.3-1.8-2.3
		c-0.4-0.9-0.6-2-0.6-3.1c0-1.5,0.3-2.8,1-3.8c0.7-1.1,1.6-1.8,2.8-2.1c0.2-0.1,0.9-0.3,1.8-0.5c1-0.3,1.8-0.5,2.5-0.8
		c0.7-0.2,1.5-0.5,2.3-0.9c0-1.4-0.3-2.5-0.6-3.2c-0.4-0.7-1.1-1-2.3-1c-1,0-1.7,0.2-2.2,0.6c-0.5,0.4-0.9,1-1.3,1.7
		c-0.4,0.8-0.6,1.3-0.8,1.5c-0.1,0.2-0.5,0.4-1,0.4c-0.4,0-0.8-0.2-1.1-0.6s-0.5-0.9-0.5-1.5c0-1,0.2-1.9,0.7-2.8
		c0.5-0.9,1.2-1.7,2.3-2.2c1-0.6,2.3-0.9,3.8-0.9c1.7,0,3.1,0.3,4,0.9s1.7,1.5,2.1,2.7c0.4,1.2,0.6,2.9,0.6,4.9c0,1.3,0,2.4,0,3.3
		s0,1.9,0,3c0,1,0.1,2.1,0.4,3.2c0.2,1.1,0.4,1.8,0.4,2.2c0,0.6-0.2,1.1-0.6,1.5c-0.4,0.5-0.8,0.7-1.3,0.7c-0.4,0-0.8-0.3-1.2-0.8
		C271.1,72.7,270.6,71.9,270.2,70.9z M269.9,63c-0.6,0.3-1.4,0.6-2.5,0.9c-1.1,0.3-1.8,0.6-2.3,0.7c-0.4,0.2-0.8,0.5-1.2,0.9
		c-0.4,0.4-0.6,1.1-0.6,1.9c0,0.8,0.2,1.5,0.7,2.1s1,0.9,1.8,0.9c0.8,0,1.5-0.2,2.1-0.7s1.1-1.1,1.4-1.8c0.4-0.8,0.5-2.2,0.5-4.1V63
		z"/>
	<path class="st2" d="M291.7,55.7v15.9c0,1.8-0.1,3.4-0.4,4.7c-0.3,1.3-0.7,2.4-1.3,3.2c-0.6,0.9-1.4,1.5-2.4,1.9
		c-1,0.4-2.2,0.6-3.7,0.6c-1.3,0-2.5-0.3-3.6-0.8s-1.9-1.2-2.4-2c-0.6-0.8-0.9-1.7-0.9-2.6c0-0.7,0.2-1.2,0.5-1.6
		c0.3-0.4,0.7-0.6,1.2-0.6c0.6,0,1.1,0.4,1.5,1.1c0.2,0.4,0.4,0.7,0.7,1.1c0.2,0.4,0.5,0.7,0.7,0.9c0.3,0.3,0.6,0.5,1,0.6
		c0.4,0.1,0.8,0.2,1.3,0.2c1,0,1.8-0.2,2.4-0.6c0.6-0.4,0.9-0.9,1.2-1.7c0.2-0.7,0.4-1.5,0.4-2.3c0-0.8,0.1-2.1,0.1-3.9
		c-0.6,1.2-1.3,2.1-2.1,2.7c-0.8,0.6-1.7,0.9-2.8,0.9c-1.3,0-2.4-0.5-3.4-1.4s-1.7-2.2-2.3-3.9c-0.5-1.7-0.8-3.6-0.8-5.8
		c0-1.6,0.2-3.1,0.5-4.5s0.8-2.4,1.4-3.3c0.6-0.9,1.3-1.6,2-2.1c0.8-0.5,1.6-0.7,2.5-0.7c1.1,0,2.1,0.3,2.9,0.9
		c0.8,0.6,1.6,1.5,2.3,2.8v-0.7c0-0.9,0.2-1.7,0.5-2.2c0.3-0.5,0.8-0.8,1.3-0.8c0.8,0,1.3,0.3,1.5,1
		C291.6,53.5,291.7,54.4,291.7,55.7z M280.4,62.7c0,2.2,0.3,3.9,1,5c0.7,1.1,1.6,1.7,2.7,1.7c0.6,0,1.3-0.2,1.8-0.7
		c0.6-0.5,1-1.2,1.4-2.2s0.5-2.2,0.5-3.6c0-2.2-0.4-4-1.1-5.2c-0.7-1.2-1.6-1.9-2.8-1.9c-1.1,0-2,0.6-2.7,1.8
		C280.7,58.8,280.4,60.5,280.4,62.7z"/>
	<path class="st2" d="M305.8,64.2h-7.6c0,1.2,0.2,2.3,0.5,3.3c0.3,0.9,0.8,1.7,1.4,2.1s1.2,0.7,1.9,0.7c0.5,0,0.9-0.1,1.3-0.2
		c0.4-0.2,0.8-0.4,1.1-0.7s0.7-0.7,1-1.1c0.3-0.4,0.7-0.9,1.2-1.5c0.2-0.2,0.5-0.4,0.9-0.4c0.4,0,0.7,0.2,1,0.5
		c0.2,0.3,0.4,0.7,0.4,1.3c0,0.5-0.1,1.1-0.4,1.7c-0.3,0.7-0.7,1.3-1.3,1.9c-0.6,0.6-1.3,1.1-2.1,1.5c-0.8,0.4-1.8,0.6-2.9,0.6
		c-2.5,0-4.5-1-5.8-3c-1.4-2-2.1-4.7-2.1-8.2c0-1.6,0.2-3.1,0.5-4.5c0.3-1.4,0.8-2.6,1.5-3.6c0.7-1,1.5-1.7,2.4-2.3
		c1-0.5,2-0.8,3.2-0.8c1.5,0,2.8,0.5,3.9,1.4c1.1,0.9,1.9,2.1,2.5,3.5c0.5,1.4,0.8,2.9,0.8,4.4c0,1.4-0.3,2.3-0.8,2.7
		C307.6,64,306.8,64.2,305.8,64.2z M298.2,61.1h7.1c-0.1-1.9-0.5-3.3-1.1-4.2c-0.6-0.9-1.4-1.4-2.5-1.4c-1,0-1.8,0.5-2.4,1.4
		C298.7,57.9,298.3,59.3,298.2,61.1z"/>
	<path class="st2" d="M315.9,54.8v0.7c0.7-1.3,1.4-2.2,2.3-2.8c0.8-0.6,1.8-0.9,2.8-0.9c1,0,1.9,0.3,2.8,0.9s1.4,1.5,1.8,2.7
		c0.3,0.7,0.4,1.4,0.5,2.2c0.1,0.8,0.1,1.8,0.1,3v10.2c0,1.1-0.2,1.9-0.5,2.5c-0.4,0.6-0.8,0.8-1.4,0.8c-0.6,0-1.1-0.3-1.4-0.9
		c-0.4-0.6-0.5-1.4-0.5-2.5v-9.1c0-1.8-0.2-3.2-0.5-4.1s-1.1-1.4-2.1-1.4c-0.7,0-1.3,0.3-1.9,0.9c-0.6,0.6-1,1.4-1.3,2.4
		c-0.2,0.8-0.3,2.3-0.3,4.6v6.9c0,1.1-0.2,1.9-0.6,2.5c-0.4,0.6-0.8,0.8-1.4,0.8c-0.6,0-1-0.3-1.4-0.9c-0.4-0.6-0.5-1.4-0.5-2.5
		V54.8c0-1,0.2-1.8,0.5-2.3c0.3-0.5,0.8-0.8,1.3-0.8c0.3,0,0.7,0.1,0.9,0.3c0.3,0.2,0.5,0.6,0.7,1C315.8,53.5,315.9,54.1,315.9,54.8
		z"/>
</g>
</svg>
