<?xml version="1.0" encoding="utf-8"?>
<!-- Generator: Adobe Illustrator 22.0.1, SVG Export Plug-In . SVG Version: 6.00 Build 0)  -->
<svg version="1.1" id="Laag_1" xmlns="http://www.w3.org/2000/svg" xmlns:xlink="http://www.w3.org/1999/xlink" x="0px" y="0px"
	 viewBox="0 0 350 350" style="enable-background:new 0 0 350 350;" xml:space="preserve">
<style type="text/css">
	.st0{fill:#FFFFFF;}
	.st1{fill:#4E5F6C;}
	.st2{fill:none;stroke:#EFA717;stroke-width:40;stroke-miterlimit:10;}
	.st3{fill:#4E5F6C;stroke:#F8B538;stroke-miterlimit:10;}
</style>
<circle class="st0" cx="177.7" cy="177.4" r="98.9"/>
<g>
	<path class="st1" d="M168.8,190.3c-2.6,1.6-4.6,3.7-6.4,6.1c-1.4,1.9-2.6,4-3.2,6.3c-0.4,1.7-0.7,3.4,0.1,5.1s2.3,2.8,4.4,2.4
		c2.1-0.4,3.7-1.5,5.2-2.9c0.5-0.4,1-0.9,1.5-1.3s0.7-1,1.1-1.4c0.7-0.7,1.2-1.6,1.8-2.4c0.5-0.7,0.7-1.6,1.3-2.3
		c0.9-1.1,1.3-2.4,1.7-3.6s0.8-2.5,1.1-3.8c0.4-2,0.7-3.9,0.8-6c-0.9,0.3-1.8,0.5-2.7,0.7C173,188,170.8,189,168.8,190.3z"/>
	<path class="st1" d="M206.2,164.8c-2.1,0-4.2,0.1-6.2,0.5c-2,0.3-3.9,0.9-5.7,1.7c-1.4,0.6-2.8,1.3-4,2.3c-1.6,1.4-3,3.1-4.8,4.3
		c-1.6,1.1-3.2,2-5.1,2c-0.4,0-0.5,0.1-0.3,0.5c0.3,0.6,0.5,1.2,0.7,1.8c0.2,1.1,0.5,2.1,0.7,3.1c0.1,0.4,0.2,0.5,0.6,0.4
		c1.1-0.2,2.2-0.4,3.3-0.4c2.8,0.1,5.6,0.2,8.4,1.1c3.1,0.9,5.8,2.5,8.3,4.4c1.6,1.3,2.9,2.9,4.1,4.6c1.2,1.8,2.2,3.7,2.7,5.9
		c0.2,1,0.5,2,0.6,3c0.3,1.7,0.3,3.3,0.1,5c-0.2,1.6-0.6,3.2-1.1,4.7c1.1,0.3,2.3,0.6,3.4,0.9c0.2,0.1,0.2,0,0.3-0.1
		c1.7-1.3,3.2-2.8,4.5-4.5c1.3-1.5,2.4-3.1,3.2-4.9c1.6-3.4,2.5-7,2.3-10.9c-0.1-2.7-0.7-5.3-1.6-7.8c-1.1-2.9-2.8-5.5-5.2-7.6
		c-0.4-0.3-0.6-0.4-1.1-0.2c-0.4,0.2-0.8,0.5-1.3,0.6c-2.4,0.9-4.8,1.7-7.3,2.3c-3.1,0.6-6.2,0.8-9.2-0.3c-1.8-0.6-3.4-1.6-4.7-3
		c-1-1.2-0.8-2.5,0.3-3.4c1.6-1.3,3.5-1.8,5.4-2.2c1.7-0.4,3.5-0.6,5.4-0.5c3.5,0.2,6.8,0.8,10,2.2c0.8,0.3,1.2,0.3,1.8-0.3
		c1.5-1.5,2.9-3.1,4-5c-0.2-0.2-0.5-0.2-0.7-0.2C214,165.1,210.1,164.7,206.2,164.8z"/>
	<path class="st1" d="M204.9,137.5c0.3,0.7,0.6,1.3,0.9,2c0.6,2.1,1.1,4.2,1.2,6.3c0,1,0.1,1.9-0.1,2.9c1.2-0.5,2.4-0.9,3.5-1.3
		c1-0.4,2.1-0.6,3-1c2-0.9,4-1.7,5.9-2.8c1.9-1,3.6-2.2,5.3-3.6c1.9-1.6,3-3.8,4.2-5.9c0.7-1.1,1.4-2.2,2.3-3.2
		c0.6-0.7,1.3-1.3,1.9-2c0.3-0.3,0.3-0.4,0-0.5c-0.8-0.3-1.6-0.5-2.3-0.2c-1.2,0.4-2.3,1.1-3.3,1.9c-2.5,2.2-4.3,4.9-6.1,7.7
		c-0.9,1.5-1.7,3-2.6,4.5c0,0.1-0.1,0.2-0.1,0.3l0,0c0,0.1-0.1,0.2-0.1,0.3l0,0l0,0l0,0c0,0-0.1,0-0.1,0.1c0-0.1,0-0.1,0.1-0.1l0,0
		l0,0c-0.1-0.1-0.1-0.3,0-0.4c0-0.1-0.1-0.2,0.1-0.3l0,0c0-0.1,0-0.2,0-0.3c0.8-2.8,2-5.4,3.1-8.1s2.6-5.3,4.1-7.9
		c0.6-1,1.2-1.9,1.8-2.8c0.1-0.2,0.5-0.5,0.3-0.7c-0.2-0.3-0.5-0.3-0.9-0.3c-1-0.1-1.8,0.3-2.5,0.9c-1.3,1-2.3,2.3-3.2,3.7
		c-0.9,1.3-1.6,2.7-2.4,4.1c-1.5,2.7-2.7,5.4-3.9,8.2c-0.4,0.9-0.6,1.8-1.2,2.7c0.2-1.6,0.4-3,0.5-4.4c0.1-2.1,0.3-4.1,0.2-6.2
		c-0.1-1.8-0.1-3.5-0.3-5.2c-0.1-1-0.3-2-0.4-3c-0.1-1.2-0.1-2.4-0.1-3.6c0-0.2,0.1-0.6-0.4-0.5c-0.4,0.1-0.9,0.1-1.2,0.5
		c-0.8,0.8-1.2,1.7-1.4,2.8c-0.4,1.7-0.4,3.5-0.4,5.2c0,1.7,0.1,3.4,0.4,5c0.4,2.4,0.3,4.8-0.1,7.2c-0.1,0.5-0.1,1.1-0.6,1.5
		c-0.1-1.3-0.3-2.6-0.8-3.8c-0.8-2.2-2.2-3.7-4-5.1c-0.2-0.2-0.5-0.1-0.7,0.1s-0.3,0.4-0.5,0.6c-1.6,1.6-3.4,2.8-5.3,4
		c-0.4,0.2-0.6,0.5-0.1,0.8c0.1,0.1,0.2,0.2,0.3,0.3c0.9,1,2.3,1.4,3.6,0.7c0.6-0.3,1.2-0.8,1.6-1.3
		C204.5,136.7,204.7,137.1,204.9,137.5z"/>
	<path class="st1" d="M225.5,141.6c-1.6,1.2-3.2,2.2-4.9,3.1c-2,1.1-4,2.2-6.2,2.9c-1.5,0.5-2.9,1.1-4.4,1.7c-1.7,0.7-3.5,1.2-5.1,2
		c-2,1-4,1.6-6,2.6c-3,1.4-5.8,3.2-8.5,5.2c-2.1,1.6-3.9,3.7-5.2,6.1c-0.1,0.2-0.3,0.3-0.1,0.5c0.2-0.1,0.4-0.2,0.5-0.4
		c0.5-0.6,1-1.2,1.6-1.7c1.7-1.3,3.3-2.6,5.2-3.6c2.7-1.4,5.4-2.6,8.3-3.3c4.1-1,8.2-2.1,12.5-2.4c2.6-0.2,5.1-0.6,7.6-1.1
		c0.4-0.1,0.9-0.3,1.3-0.2c0.3,0.1,0.6-0.1,0.6-0.5c0.2-1.2,0.5-2.5,0.8-3.7s0.5-2.4,0.8-3.6C224.8,144.1,225.2,142.9,225.5,141.6z"
		/>
	<path class="st1" d="M197.8,151.6c0-0.1,0-0.2,0-0.3c-0.2-1.7-0.2-3.4-0.5-5c-0.5-2.2-2-2.9-3.8-3.1c-0.3,0-0.5,0.1-0.4,0.5
		c0.1,0.5,0.1,1,0,1.5c-0.2,2.3-0.9,4.6-1.2,6.9c-0.2,1.4-0.5,2.9-0.5,4.4c1.8-1.4,3.7-2.5,5.7-3.4
		C197.7,152.8,198.3,152.5,197.8,151.6z"/>
	<path class="st1" d="M184.6,166.5C184.6,166.5,184.7,166.5,184.6,166.5C184.7,166.5,184.6,166.5,184.6,166.5z"/>
	<path class="st1" d="M197.1,171.8c-0.6,0.2-1.1,0.4-1.6,0.7c-0.6,0.5-0.6,1,0,1.4c0.7,0.5,1.5,0.7,2.3,0.8c1.6,0.3,3.3,0.5,4.9,0.5
		c1.3,0,2.6-0.2,3.8-0.4c1.8-0.4,3.6-1,5.2-2.1c-0.5-0.2-0.9-0.4-1.4-0.6c-2.5-0.8-5.1-1.2-7.7-1.1
		C200.7,171,198.9,171.3,197.1,171.8z"/>
	<path class="st1" d="M126.3,137.2c1.4,1.4,2.7,2.7,4.2,4.1C130,138.8,128.1,137,126.3,137.2z"/>
	<path class="st1" d="M163,108.7c-0.3-0.5-0.3-1.2-1-1.5c-0.5-0.2-1.1-0.4-1.6-0.6c-1.1-0.4-1.9-1.2-2.4-2.3
		c-0.5-1.2-0.7-2.5-0.4-3.9c0.4-1.8,1.2-3.4,2.9-4.3c0.4-0.2,0.5-0.1,0.5,0.2c0.6,2.5,1,5.1,2.1,7.5c0.3,0.8,0.8,1.1,1.6,0.8
		c1.4-0.6,2.5-1.4,3.2-2.8c1.5-2.7,0.7-6.3-1.8-8.3c-1.9-1.6-4.1-2.6-6.7-2.9c-2-0.2-4-0.2-6,0.6c-1.7,0.7-3.2,1.6-4.5,2.8
		c-1.5,1.3-2.6,3-3.7,4.6c-0.9-0.6-1.8-1.2-2.7-1.6c-2.2-0.9-4.5-1.5-6.8-1.6c-2.1,0-4.2,0-6.2,0.8c-1.7,0.6-3.4,1.2-5,2.2
		c-1.8,1.2-3.1,2.7-4.1,4.6c-0.9,1.7-1.5,3.4-1.7,5.2c-0.2,1.7-0.2,3.4-0.1,5.1c0.2,1.6,0.5,3.2,1.1,4.6c0.8,2.1,1.8,4.1,3.6,5.6
		c0.2,0.2,0.3,0.3-0.1,0.5c-2.3,1.3-4.3,3-6.1,4.9c-1.5,1.6-2.5,3.4-3.1,5.4c-0.8,2.6-0.5,5.3,0.7,7.7c1.7,3.4,4.3,5.6,8.3,5.6
		c2.7,0,4.8-1.4,6.3-3.6c0.1-0.2,0.2-0.3,0-0.6c-1.3-1.7-2.6-3.3-4-4.9c-0.8-0.9-1.7-1.8-2.5-2.6c0.4-0.3,0.9-0.4,1.4-0.5
		c1.6-0.4,3.1-0.4,4.6,0.3c2.2,1,3.3,3.5,3,5.8c-0.1,0.9,0.1,1.5,0.7,2.1c0.2,0.2,0.5,0.4,0.8,0.7c1.3,1.5,2.6,3,3.9,4.5
		c0.2,0.3,0.4,0.3,0.5,0c0.8-2.2,1.8-4.3,2.7-6.4c0.9-1.9,1.8-3.7,2.8-5.4c0.6-1.1,1.4-2.2,2.1-3.3c0.9-1.5,1.9-2.9,3.1-4.1
		c1.6-1.7,3.4-3.2,5.3-4.5c2.4-1.7,5-3.1,7.7-4.4c2.6-1.2,5.4-2.2,8.2-3.1c-0.5-0.6-1-1.2-1.5-1.8
		C166.1,113.8,164.5,111.3,163,108.7z"/>
	<path class="st1" d="M148.7,64.3c-66,14.4-107.8,79.6-93.4,145.6s79.6,107.8,145.6,93.4s107.8-79.6,93.4-145.6
		C279.9,91.8,214.7,49.9,148.7,64.3z M233.7,247c-2.5,1.6-5.1,3.2-7.7,4.5c-3.1,1.6-6.2,3-9.4,4.3c-6.8,2.6-13.8,4.2-20.9,5.7
		c-2.5,0.5-5.1,1-7.6,1.4c-4.7,0.6-9.5,1.2-14.3,1.3c-4.5,0.1-8.9,0-13.4-0.6c-1.8-0.2-3.6-0.5-5.6-1c28.5-1,55.8-6.5,81.9-17.7
		C235.7,245.7,234.7,246.4,233.7,247z M249.7,234.6L249.7,234.6c-0.8,1-1.9,1.6-2.9,2.3c-4.4,3-9.1,5.5-13.9,7.7
		c-2.8,1.3-5.7,2.4-8.6,3.5c-3.9,1.4-7.8,2.7-11.7,3.9c-3.7,1.1-7.4,2-11.1,2.9c-4.5,1.1-9,2.1-13.5,3c-2.1,0.4-4.2,0.8-6.4,1.1
		c-2.1,0.3-4.3,0.5-6.4,0.8c-1.6,0.3-3.3,0.3-5,0.6c-1.7,0.2-3.5,0.3-5.2,0.4c-1.5,0.1-2.9,0.2-4.4,0.3c-1.6,0.1-3.2,0.1-4.7,0
		c-2.6,0-5.2-0.1-7.9-0.3c-3.1-0.2-6.1-0.5-9.1-1.2c-1.1-0.2-2.3-0.4-3.4-0.9c0.4-0.2,0.8-0.1,1.2-0.1c2.3,0.2,4.6,0.2,6.9,0.3
		c2.1,0.1,4.1,0.1,6.2,0.1c2.8,0,5.5-0.1,8.3-0.3c2.1-0.1,4.2-0.3,6.3-0.4c1.3-0.1,2.7-0.2,4-0.3c1.7-0.1,3.3-0.3,5-0.5
		c0.7-0.1,1.3-0.2,2-0.3c1.9-0.3,3.9-0.4,5.8-0.8c1.8-0.3,3.7-0.7,5.5-1c4.7-0.7,9.4-1.7,14-2.8c4.1-1,8.2-2.1,12.3-3.3
		c3.2-1,6.4-2,9.5-3.2c3.1-1.1,6.2-2.3,9.2-3.5c3.5-1.4,6.9-2.9,10.3-4.5c2.3-1.1,4.6-2.3,6.9-3.4
		C249.1,234.8,249.4,234.6,249.7,234.6L249.7,234.6L249.7,234.6L249.7,234.6c0-0.1,0-0.1,0.1-0.2c0,0,0,0,0.1,0
		C249.8,234.5,249.8,234.6,249.7,234.6L249.7,234.6z M151.2,252.7c1.6,0.7,3.3,0.9,5,1.1c3.3,0.4,6.6,0.3,9.9,0.1
		c2.4-0.1,4.9-0.4,7.3-0.6c2.9-0.3,5.7-0.6,8.6-1.1c2.7-0.4,5.4-0.8,8-1.3c1.1-0.2,2.3-0.4,3.4-0.6c0.6-0.1,0.6,0.4,0.9,0.5
		c0.3,0.2,1,0.3,0.9,0.7s-0.7,0.3-1.1,0.4c-1.5,0.3-3,0.7-4.5,0.9c-2.1,0.3-4.3,0.7-6.4,1.1c-2.4,0.4-4.8,0.7-7.1,0.9
		c-2.6,0.3-5.2,0.5-7.7,0.8c-4.5,0.4-9,0.6-13.6,0.3c-2.4-0.2-4.7-0.5-6.9-1.6c-1-0.5-1.9-1.2-2.3-2.3c-0.3-0.7-0.6,0.3-0.7,0.1
		c1.5-2.3,2.9-4.6,4.2-6.6c-0.2,0.6-0.4,1.6-0.6,2.7C148.1,250.6,149.3,251.9,151.2,252.7z M180.9,219.7c-3.1,3-5.4,6.4-7,10.4
		c-1.3,3.3-1.9,6.7-1.9,10.3c0,1.8,0.1,3.6,0.5,5.3c0.1,0.6-0.1,0.7-0.6,0.7c-1.2-0.1-2.4,0.1-3.6-0.1c-0.5-0.1-0.8-0.2-0.8-0.8
		c-0.4-4.6,0.2-9.1,1.8-13.5c1.3-3.3,3.1-6.2,5.6-8.7c2.2-2.3,4.7-4.1,7.5-5.6c0.6-0.3,1.1-0.8,2.1-0.9
		C183.1,217.7,182,218.7,180.9,219.7z M200.1,222.2c1.6,0.6,2.2,0.3,3.7-1.5c0.4,0.8-0.1,2-1,2.8c-1.4,1.1-3.3,1.1-4.9-0.2
		c-1.5-1.1-2.1-3.1-1.3-4.7c0.6-1.4,2.2-2.1,3.9-1.8c-1.5,0.6-2.2,1.4-2.2,2.5C198.2,220.7,199,221.8,200.1,222.2z M225.8,230.3
		c-2.1-3.2-4.4-6.2-7.1-8.8c-2.5-2.4-5.2-4.5-8.2-6.2c-0.1-0.1-0.3-0.1-0.4-0.2c0-0.1,0.1-0.1,0.1-0.2c1.6,0.4,3.1,1.1,4.6,1.8
		c4.2,2.1,7.7,5.1,10.8,8.6c1.5,1.7,2.9,3.6,3.9,5.6c0.9,1.7,0.7,2.6-0.7,3.9c-1.8,1.7-3.9,2.8-6.1,3.8c-2.2,1-4.3,1.9-6.6,2.6
		c-2,0.7-3.9,1.3-5.9,1.9c0,0-0.1-0.1-0.3-0.1c2.8-1.1,5.5-2.2,8.1-3.6c2.6-1.3,5.1-2.8,7-5c0.4-0.5,0.8-1,1-1.6
		C226.5,232,226.3,231.2,225.8,230.3z M244.5,159.2c0.1,1.1,0.1,2.3,0.3,3.4c0.1,1.4,0.2,2.7,0.3,4.1c0.1,1.7,0.2,3.4,0.3,5.1
		c0,1.3,0.2,2.6,0.3,4c0.1,1.8,0.3,3.5,0.4,5.3c0.1,1.7,0.3,3.3,0.4,5c0.1,1.7,0.2,3.3,0.3,5c0.1,1.3,0.3,2.7,0.4,4
		c0,0.5,0.2,1.1-0.3,1.6c-0.3-0.9-0.3-1.8-0.4-2.7c-0.1-1.2-0.3-2.5-0.4-3.7c-0.3-2.1-0.5-4.3-0.8-6.4c-0.1-1.4-0.5-2.8-0.6-4.2
		c-0.2-1.9-0.6-3.9-0.6-5.8c0-1.1-0.2-2.3-0.4-3.4c-0.3-2.1-0.6-4.2-0.8-6.4c0-0.7-0.4-1.3-0.2-2.2c-3.3,2.1-6.9,2.7-10.5,3.4
		c-2.2,0.4-4.4,0.5-6.7,0.5c-1,0-2,0-3-0.1c-0.3,0-0.5,0.1-0.6,0.4c-0.7,1.3-1.4,2.7-2.3,3.9c-0.7,1-1.5,1.9-2.4,2.8
		c-0.3,0.3-0.2,0.3,0,0.5c2.7,2,4.7,4.6,6,7.7c0.8,2.1,1.2,4.3,1.5,6.5c0.3,2.9,0.1,5.8-0.7,8.6c-0.7,2.5-1.8,4.8-3.2,7.1
		c-1.7,2.8-3.9,5.1-6.4,7.3c-0.4,0.3-1.1,0.4-1,1c0.1,0.4,0.8,0.3,1.2,0.5c0.7,0.3,1.4,0.4,2,0.9c0.1,0,0.2,0,0.2,0
		c0.5,0.6-0.3,1-0.3,1.5c-0.3,0-0.4,0.6-0.9,0.3c-2.5-1.1-5.2-2-7.8-2.7c-0.6-0.2-0.8,0.1-1,0.5c-1.3,2.9-3.3,5.3-5.5,7.5
		c0,0-0.1,0-0.1,0.1s-0.1,0.2-0.2,0.2c0-0.1,0.1-0.2,0.1-0.2l0,0c1.3-2,2.6-4,3.4-6.2c0.2-0.6,0.5-1.1,0.7-1.7
		c0.1-0.4,0.2-0.6-0.4-0.7c-2.7-0.6-5.5-0.8-8.3-0.9c-1.7-0.1-3.4-0.1-5.1,0.2c-0.5,0.1-1.1,0.1-1.6,0.1c0,0.4-0.1,0.9,0.1,1.3
		c0.2,0.7-0.1,0.8-0.6,0.9c-1.7,0.4-3.4,0.7-5.1,1.3c-2.4,0.9-4.8,1.9-7.1,3.2c-2.7,1.5-5.1,3.4-7.2,5.6c-2.2,2.2-4,4.7-5.6,7.4
		c-1.1,1.9-2,3.9-2.7,5.9c-0.8,2.2-1.5,4.5-1.7,6.9c-0.1,1.2-0.2,2.4-0.2,3.6c0,1,0.2,1.4,1.2,1.7c1.4,0.6,2.9,0.6,4.3,0.8
		c2.8,0.3,5.6,0.3,8.4,0.3c2.7,0,5.3-0.2,8-0.3c0.8,0,1.6-0.1,2.5,0c-1.6,0.6-3.2,0.5-4.8,0.7c-1.3,0.2-2.6,0.3-3.8,0.4
		c-3.6,0.3-7.2,0.5-10.7,0.6c-2.1,0-4.3,0-6.4-0.3c-1.6-0.2-3.1-1.3-3.5-3.1c-0.6-2.6,0.1-4.9,1-7.3c1.1-3,2.7-5.8,4.4-8.5
		c1.8-2.9,3.9-5.5,6.2-8c2-2.1,4.3-3.8,6.7-5.4c2.3-1.6,4.8-2.8,7.3-4c1.3-0.6,2.7-1.2,4.1-1.4c0-0.1,0-0.1,0-0.1
		c-0.3-0.3-0.1-0.9-0.5-0.9c-0.5,0-1.1,0.1-1.6,0.3c-1.1,0.4-2.2,0.7-3.3,1.1c-1.4,0.5-2.7,1-4,1.6c-2.1,0.9-4,2-5.9,3.1
		c-2.9,1.8-5.5,3.9-8,6.3c-3.2,3.1-5.8,6.7-8.1,10.5c-0.2,0.3-0.4,0.3-0.6,0.2c-0.2-0.1-0.4-0.2-0.6-0.4c-0.3-0.2-0.9-0.4-0.9-0.6
		c-0.1-0.3,0.3-0.7,0.5-1.1c2.2-3.3,4.6-6.5,7.4-9.3c2.2-2.2,4.6-4.1,7.2-5.9c2.3-1.7,4.9-3,7.4-4.2c1.7-0.8,3.4-1.5,5.2-2
		c1.5-0.4,3-1.1,4.5-1.4c0.4-0.1,0.4-0.3,0.3-0.5c-0.4-0.8-0.6-1.8-1-2.6c-0.2-0.4-0.1-0.7,0.4-0.8c1.8-0.4,3.6-0.8,5.5-1.2
		c0.4-0.1,0.7-0.1,0.7,0.5c0,1,0.3,1.9,0.3,2.9c0,0.3,0,0.6,0.6,0.5c2.5-0.4,5-0.4,7.5-0.4c2.5,0.1,4.9,0.3,7.3,0.8
		c0.6,0.1,1.1,0.2,1.3-0.8c0.2-2,0.5-3.9,0.3-5.9c-0.3-2.7-1-5.2-2.3-7.6c-1-1.7-2.3-3-3.9-4.2c-1.6-1.2-3.3-2.2-5.2-2.9
		c-2-0.8-4-1.3-6.2-1.7c-1.9-0.3-3.8-0.4-5.8-0.4c-0.4,0-0.8,0.1-1.3,0.1s-0.5,0.5-0.5,0.8c0,0.8-0.1,1.6-0.2,2.4
		c-0.3,2.1-0.8,4.2-1.5,6.3c-0.8,2.4-1.9,4.6-3.2,6.7c-1.2,1.9-2.6,3.7-4.1,5.3c-1.8,1.9-3.6,3.6-5.9,4.9c-3.2,1.8-6.7,2.1-9.7-0.8
		c-1.2-1.1-2-2.6-2-4.4c0-2.6,0.4-5.2,1.3-7.7c1.7-4.5,4.5-8.1,8.4-10.9c2.5-1.8,5.2-3.2,8-4.4c1.6-0.7,3.3-1.1,5-1.7
		c0.2-0.1,0.4-0.1,0.3-0.4c-0.1-2.1-0.8-4.1-1.5-6.1c-0.2-0.6-0.8-0.8-1.4-1c-1.2-0.3-2.4-0.8-3.5-1.2c-1-0.4-2.1-0.5-3.2-0.7
		c-2.9-0.5-5.8-0.1-8.6,0.7c-2.9,0.8-5.6,2-8.2,3.4c-2,1.1-4,2.2-6.1,3.2c-3.2,1.5-6.3,3.1-9.6,4.6s-6.7,2.3-10.2,3
		c-1.8,0.3-3.7,0.4-5.6,0.2c0.4,1.2,0.7,2.3,1.1,3.4c0.3,0.7,0.4,1.4,0.6,2.1c0.3,0.9,0.6,1.8,0.8,2.8c0.4,1.7,0.9,3.4,1.5,5.1
		c0.5,1.2,0.8,2.4,1.1,3.7c0.6,1.9,1.2,3.8,1.9,5.7c0.4,1.2,0.8,2.3,1.1,3.5c0.4,1.6,1,3.2,1.5,4.8c0.2,0.8,0.7,1.5,0.5,2.3
		c-0.3-0.3-0.6-0.9-0.7-1.3c-0.6-1.7-1.2-3.4-1.8-5c-0.5-1.2-0.9-2.5-1.3-3.7c-0.6-1.6-1.1-3.3-1.8-4.9c-0.5-1.2-0.9-2.5-1.3-3.8
		c-0.8-2.3-1.5-4.6-2.4-6.9c-0.6-1.5-1.1-3.2-1.7-4.7c-0.6-1.6-1.1-3.3-1.8-4.8c-0.1-0.2-0.2-0.4-0.1-0.6c0.1-0.1,0.3-0.1,0.4,0
		c2.1,0.4,4.2,0.5,6.4,0.3c0,0,0.1,0,0.2,0.1c-1.4-4.6-3.2-9.1-4.4-13.8c1.1,0.3,2.2,0.7,3.3,0.7c1.7,0.1,3.3,0.1,5-0.1
		c2.4-0.3,4.6-0.9,7-1.4c1.7-0.3,3.4-0.8,5-1.3c1.1-0.3,2.3-0.6,3.4-1.1c0.8-0.4,1.7-0.8,2.6-0.9c1.6-0.2,3.1-0.6,4.6-1
		c1.4-0.3,2.7-1,4-1.4c0.3-0.1,0.5-0.2,0.8-0.2c1.4-0.2,2.7-0.8,4.1-1c1.8-0.2,3.6-0.5,5.4-0.4c0.2,0,0.3,0,0.5-0.1l0.1-0.1
		c-1.6-0.7-3.3-0.8-4.9-1c-2.3-0.3-4.7-0.3-7.1-0.3c-1.2,0-2.5-0.1-3.7,0.1c-2.3,0.4-4.6,0.2-6.8,0.4c-1.3,0.1-2.6,0.3-4,0.2
		c-3.3-0.2-6.7,0-9.9-0.8c-1-0.2-1.9-0.5-3-0.8c0.8,3.1,2,6.1,2.4,9.3c-0.8-2-1.6-4-2.4-6c-0.8-1.9-1.6-3.8-2.3-5.8
		c-0.1-0.1-0.4-0.2-0.1-0.4c0.2-0.2,0.4,0,0.6,0.1c1,0.7,2.1,1,3.2,1.4c2,0.7,4.1,0.9,6.1,1.1s4,0.3,6,0.2c1.7-0.1,3.5-0.2,5.2-0.3
		c0.7,0,1.3-0.1,2-0.1c0.4,0,0.5-0.2,0.6-0.5c1.2-2.5,2.4-5,3.8-7.4c1.2-2,2.5-3.9,4-5.6c1.7-1.9,3.6-3.5,6-4.8
		c1.6-0.8,3.2-1.4,4.8-1.8c1.7-0.4,3.5-0.7,5.3-0.5c0.4,0,0.7,0,0.9-0.4c0.6-1.6,1.1-3.2,1.2-5c0.1-1.6-0.9-2.4-2-3
		c-1.2-0.6-2.5-1.1-3.8-1.3c1-0.4,2-0.4,3-0.2c1.1,0.1,2.1,0.3,3.1,0.8c1.1,0.4,1.9,1.5,1.9,2.6c0,0.7,0.1,1.3,0,2.1
		c1.3-0.8,2.5-1.5,3.8-2c0.6-0.2,1.3-0.4,1.9-0.6c1.5-0.4,3-1,4.4-1.6c1.8-0.8,3.5-1.8,4.7-3.3c1.8-2.2,0.9-4.3-1.2-5.5
		c-1.2-0.6-2.4-0.1-3.4,0.7c-2.3,1.8-3.7,4.1-4.4,6.9c-0.2-1.4-0.8-2.7-1.4-3.9c-0.7-1.3-1.7-2.4-2.9-3.2c-2-1.3-3.7-2.8-5.5-4.4
		c-0.3-0.3-0.5-0.3-0.9-0.2c-2.1,0.6-4.2,1.2-6.3,2.1c-3.3,1.4-6.3,3.4-9,5.7c-2.1,1.8-4.1,3.8-5.9,6.1c-1.6,2-3.1,4.1-4.4,6.4
		c-1.4,2.4-2.6,4.9-3.6,7.5c-0.9,2.2-1.6,4.5-2.3,6.7c-0.4,1.2-0.6,2.4-0.9,3.8c-0.6-1-1.2-1.9-1.7-2.8c-1-1.9-2.3-3.7-3.4-5.5
		c-0.7-1.1-1.5-2.2-2.2-3.3c-0.2-0.2-0.3-0.4-0.6,0c-0.9,1.3-2,2.4-3.4,3.1c-2,1-4.2,1.4-6.3,1.2c-2.9-0.3-5.3-1.6-7.2-3.9
		c-0.9-1-1.7-2.1-2.3-3.2c-0.7-1.3-1-2.8-1.2-4.3c-0.2-2.4,0.3-4.7,1.1-6.9c0.6-1.8,1.6-3.4,2.7-5c1-1.4,2-2.6,3.3-3.7
		c0.3-0.2,0.2-0.3,0.1-0.5c-0.9-1.5-1.6-3.1-2.1-4.8c-0.8-2.5-1.1-5-0.8-7.6c0.2-2.3,1.1-4.4,2.2-6.3c1.4-2.4,3.1-4.4,5.3-6
		c1.8-1.4,3.8-2.4,6-3.1c2.5-0.9,5.1-1.1,7.7-1c2.3,0.1,4.6,0.6,6.9,1.2c0.4,0.1,0.7,0.1,0.9-0.3c1.6-2.2,3.5-4.1,5.9-5.5
		c1.7-1,3.5-1.7,5.5-2.2c2.3-0.5,4.5-0.6,6.8-0.3c2.4,0.4,4.5,1.4,6.3,3.1c1.6,1.5,2.7,3.3,3.4,5.4c1.1,3.2,0.5,6.1-1.4,8.8
		c-1.1,1.5-2.5,2.7-4.4,3c-0.2,0-0.4,0.1-0.7,0.2c1.3,2.4,2.8,4.5,4.7,6.4c0.9,0.9,1.9,1.9,2.8,2.8c0.3,0.3,0.6,0.5,1.1,0.3
		c2.2-0.8,4.4-1.5,6.2-3.2c1.2-1.1,1.4-3.2,0.4-4.9c-0.6-1-1.3-1.8-2.5-2c-1.8-0.3-3.7,0.8-4,2.5c-0.1,0.8,0.9,2.7,2.1,3.1
		c0.3,0.1,0.6,0.2,0.9,0.3c-0.7,0.4-1.5,0.5-2.4,0c-1.9-1-3.2-2.4-2.5-4.8c0.5-1.5,1.7-2.4,3-3.1c2.4-1.2,5.8-0.6,7.5,1.5
		c1,1.2,1.3,2.6,1.2,4.2c-0.2,2.4-1.4,3.9-3.3,5.1c-1.8,1.2-3.7,1.9-5.7,2.6c0,0.3,0.3,0.5,0.6,0.7c1.6,1.4,3.2,2.8,4.7,4.3
		c0.9,1,1.7,2,2.2,3.3c0.6-0.9,1.2-1.9,2-2.7c2.4-2.6,5.4-3.2,8.4-1.2c1.6,1.1,2.3,2.9,2.3,4.9c0,1.5-0.1,3.1-1.1,4.4
		c-0.8,1.1-1.9,2-3.1,2.8c-2.7,1.7-5.7,3-8.5,4.5c-2.2,1.2-4.6,2.4-5.9,4.6c-1,1.7-2.3,1.6-3.8,1.8c-1.4,0.2-2.9,0.4-4.3,1
		c-0.4,0.2-0.9,0.3-1.3,0.3c-1,0-1.9,0.4-2.7,0.9c-2.1,1.2-4.2,2.2-6.1,3.8c-1.1,0.9-2,1.8-2.8,2.9c-1.2,1.6-2.3,3.3-3.2,5.1
		c-0.2,0.4-0.5,0.9-0.8,1.3c-0.1,0.2-0.2,0.4-0.1,0.6c0.1,0.1,0.3,0.1,0.5,0.1c3.1-0.2,6.3-0.2,9.4,0.2c4,0.5,7.9,1.4,11.5,3.3
		c2.3,1.2,4.4,2.8,6.1,4.9c1,1.2,2,2.4,2.8,3.9c0.1-2,0.5-3.9,1.2-5.7c1.3-3.2,3-6.1,5.5-8.4c0.3-0.3,0.7-0.6,1.1-0.9
		c0.9-0.5,0.8-1.2,0.7-2c-0.2-1.9-0.1-3.8,0.1-5.8c0.3-2.6,0.6-5.1,0.3-7.7c-0.1-0.9,0-1.9-0.5-2.8c-0.2-0.3,0-0.5,0.3-0.6
		c1.9-0.7,3.7-0.6,5.4,0.4c2.1,1.3,3.5,3,3.8,5.5c0.2,1.3,0.1,2.6,0.2,3.9c0,0.7,0.1,1.4,0.6,1.9c0.2,0.2,0.3,0.3,0.6,0.2
		c0.8-0.4,1.7-0.8,2.6-1.1c0.6-0.2,0.8-0.6,1-1.1c0.5-2,0.5-4,0.4-6c0-0.6-0.2-1.2-0.1-1.8c-0.6-0.1-1.1,0.4-1.7,0.5
		c-1.9,0.4-3.5,0-4.9-1.4c-1.1-1.1-1.9-2.3-2.3-3.8c-0.1-0.3-0.1-0.4,0.2-0.5c2.8-1.2,4.8-3.2,6.5-5.6c0.3-0.4,0.5-0.8,0.8-1.2
		s0.6-0.3,0.9-0.2c2,0.6,3.6,1.7,5,3.5c-0.3-2.2-0.4-4.2-0.4-6.3c0-2.7,0-5.4,1.1-8c0.7-1.8,3.1-3.1,4.9-3.1c0.6,0,1.4-0.2,1.7,0.2
		c0.3,0.3-0.1,1.1-0.1,1.7c-0.2,2.9,0,5.7,0,8.6c0,1.6,0.2,3.2,0.2,4.8c0.8-1.5,1.6-2.9,2.4-4.3c1.3-2.1,2.7-4.1,4.5-5.8
		c1.9-1.7,4.3-1.5,6.2-0.5c0.6,0.3,1.2,0.6,1.7,1.1c0.2,0.2,0.2,0.3,0,0.5c-1.1,1.3-2,2.8-3,4.2c-0.6,0.9-1.2,1.7-1.6,2.7
		c0.8-0.5,1.6-1,2.5-1.6c1.6-1,3.3-1.6,5.2-1.5c1.3,0.1,3.1,1.5,3.5,2.6c0.1,0.3-0.1,0.4-0.3,0.5c-2.3,1.6-4.2,3.6-5.8,5.9
		c-1.6,2.2-2.7,4.7-3.7,7.2c-0.3,0.9-0.1,1.9-0.1,2.9c0,1.8,0,3.6,0,5.5c-0.5-1.6-0.6-3.3-0.9-5.2c-0.6,1.8-0.8,3.5-1.1,5.3
		c-0.1,0.5-0.1,1-0.2,1.5c-0.1,0.4,0.1,0.5,0.4,0.4c2.5-0.5,4.9-1.3,7.2-2.5c1.1-0.6,2-1.3,3.1-2.3c0.5,4.9,1,9.7,1.5,14.4
		c1.7-0.5,3.2-1.1,4.7-2c0.4-0.2,0.8-0.5,1.2-0.8C244.3,158.6,244.5,158.7,244.5,159.2z M180.4,205.5c2.1-5.4,7.2-6.3,11.5-2.5
		C188,203.8,184.2,204.6,180.4,205.5z M148.9,140.3C148.9,140.4,148.9,140.4,148.9,140.3c0,0.1,0,0.1,0,0.2l0,0
		C148.9,140.4,148.9,140.4,148.9,140.3C148.9,140.4,148.9,140.3,148.9,140.3L148.9,140.3c0.1-2.4,0.5-4.7,2-6.7
		c1-1.3,2.7-1.6,4.3-0.9c-1,0.5-1.8,1.2-2.6,1.9c-1.4,1.5-2.4,3.2-3.4,5C149.3,139.9,149.2,140.2,148.9,140.3L148.9,140.3
		L148.9,140.3L148.9,140.3z M165.4,126c-0.1-1.5,1.2-3.2,2.6-3.6c1.9-0.5,3.6,0.1,5.3,1c0.1,0.1,0.1,0.1,0.2,0.2
		c-0.1,0.1-0.2,0.1-0.3,0C170.2,123.2,167.7,124.3,165.4,126z"/>
	<path class="st1" d="M160.9,103.7c-0.5-1.4-0.9-2.7-0.9-4.1C159.1,101.3,159.4,103,160.9,103.7z"/>
</g>
<ellipse class="st2" cx="175.3" cy="176" rx="134.1" ry="134.1"/>
<g>
	<path class="st1" d="M114.5,299.4c-0.1,0.3-0.6,0.7-1.4,1.1c-0.8,0.5-1.4,0.7-1.6,0.5c-0.3-0.2-0.6-1.2-0.9-3
		c-0.3-2-0.6-3.2-0.7-3.5l-1.7,2.9c0,0.1-0.1,0.2-0.1,0.4c0,0.2-0.1,0.3-0.1,0.4c-0.2,0.4-0.4,0.7-0.7,0.7c-0.1,0-0.3-0.1-0.6-0.2
		c-0.5-0.3-0.8-0.6-1.2-1c-0.4-0.5-0.5-0.9-0.3-1.1l6.7-11.4c0.1-0.2,0.3-0.4,0.6-0.5c0.3-0.2,0.5-0.2,0.7-0.2c0,0,0.1,0,0.1,0.1
		c0.3,0.2,0.7,0.5,1.1,1.1s0.6,0.9,0.6,1.1c0,0.1-0.3,0.4-0.8,1c-0.6,0.7-1,1.2-1.2,1.7c-0.1,0.1-0.1,0.3-0.2,0.4l5.1-2.5
		c0.3-0.1,0.6-0.1,0.8,0c0.3,0.2,0.5,0.6,0.9,1.2c0.4,0.7,0.4,1.2,0.2,1.6c-0.1,0.1-0.8,0.4-2.3,1c-1.8,0.7-3.3,1.4-4.5,2.1l1,5.4
		c0,0.1,0.1,0.3,0.4,0.5C114.5,299.1,114.6,299.3,114.5,299.4z"/>
	<path class="st1" d="M125.6,296.2c0.5,0.6,0.7,1.4,0.6,2.4c-0.1,0.9-0.4,1.9-0.9,3c-0.7,1.5-1.5,2.6-2.6,3.4
		c-1.1,0.9-2,1.1-2.8,0.6c-0.3-0.2-0.7-0.5-1.2-0.9c-0.4-0.3-0.8-0.5-1.1-0.8c-0.5-0.5-0.8-1.2-0.7-2.3c0.1-1,0.3-2,0.9-3.1
		c0.5-1.1,1.2-2,2-2.8c0.9-0.8,1.7-1.2,2.6-1.3c0.2,0,0.3,0,0.5,0.1s0.6,0.4,1.2,0.8C124.5,295.5,125,295.8,125.6,296.2z
		 M123.1,296.8c-0.3-0.1-0.7,0.1-1.3,0.7s-1,1.2-1.3,1.9c-0.4,0.8-0.6,1.6-0.8,2.4c-0.2,0.9-0.2,1.5,0.1,1.7s0.8,0,1.5-0.7
		s1.2-1.5,1.7-2.5c0.3-0.6,0.5-1.1,0.6-1.7C123.6,297.5,123.5,297,123.1,296.8z"/>
	<path class="st1" d="M135.2,300.1c0.5,0.5,0.8,1.3,0.8,2.3c0,0.9-0.2,1.9-0.6,3c-0.6,1.5-1.3,2.7-2.3,3.6c-1,1-1.9,1.2-2.7,0.8
		c-0.3-0.2-0.7-0.5-1.3-0.8c-0.4-0.2-0.8-0.5-1.2-0.7c-0.6-0.4-0.9-1.1-0.9-2.2c0-1,0.2-2,0.6-3.2s1-2.1,1.7-2.9
		c0.8-0.9,1.6-1.4,2.5-1.5c0.1,0,0.3,0,0.5,0.1s0.6,0.3,1.2,0.7C134.1,299.5,134.6,299.8,135.2,300.1z M132.8,300.9
		c-0.3-0.1-0.7,0.1-1.3,0.8c-0.5,0.6-0.9,1.3-1.2,2c-0.3,0.8-0.5,1.6-0.6,2.5s0,1.5,0.2,1.7c0.3,0.2,0.8-0.1,1.4-0.9
		c0.6-0.8,1.1-1.6,1.5-2.7c0.2-0.6,0.4-1.2,0.4-1.8C133.4,301.6,133.2,301.1,132.8,300.9z"/>
	<path class="st1" d="M145.2,312.1c0,0.2-0.4,0.6-1,1s-1.1,0.6-1.3,0.5c-0.5-0.2-1.1-1.8-2-4.9c-0.2,0.1-0.4,0.2-0.8,0.4l-0.6,2
		c0,0.1,0,0.2,0,0.3c0,0.2,0,0.3,0,0.3c-0.1,0.4-0.2,0.6-0.5,0.7c-0.1,0-0.3,0-0.5-0.1c-0.4-0.1-0.8-0.3-1.2-0.6s-0.6-0.6-0.5-0.9
		l3.6-12.9c0.1-0.2,0.2-0.4,0.3-0.6c0.2-0.2,0.3-0.3,0.5-0.3h0.1c0.3,0.1,0.7,0.3,1.2,0.7c0.5,0.4,0.7,0.6,0.7,0.8
		c0,0.1,0,0.2,0,0.2c0,0.1-0.1,0.2-0.2,0.3c-0.1,0.1-0.2,0.2-0.3,0.4l-1.7,6l3.6-2.8c0.2-0.2,0.4-0.2,0.7-0.2
		c0.2,0.1,0.5,0.3,0.8,0.7s0.5,0.8,0.4,1.1c0,0.1-0.4,0.5-1.2,1.1c-1.2,1-1.9,1.6-2.1,1.8l1.4,3.7c0,0.1,0.2,0.3,0.4,0.5
		C145.2,311.9,145.2,312,145.2,312.1z"/>
	<path class="st1" d="M156.8,307c0.2,0.6,0.2,1.3,0,2.2c-0.2,1.1-0.7,2.3-1.3,3.5c-0.7,1.1-1.3,2-2,2.5c-0.1,0.2-0.2,0.3-0.2,0.4
		c-0.1,0.1-0.2,0.2-0.3,0.3c-0.2,0.1-0.5,0.1-0.9,0.1c-0.3-0.1-0.7-0.2-0.9-0.5c0,0-0.3-0.3-0.7-0.8c0,0.1,0,0.2,0,0.4
		c0,0.1,0,0.2-0.1,0.3c-0.1,0.2-0.3,0.4-0.5,0.3c-0.3,0-0.7-0.2-1.4-0.6c-0.7-0.3-1-0.6-1.1-0.8c-0.1-0.1,0-0.3,0.3-0.6
		c0.1-0.1,0.2-0.3,0.2-0.7l2.3-11.9c0-0.1,0-0.2-0.1-0.4c-0.1-0.2-0.1-0.3-0.1-0.4c0.1-0.4,0.4-0.5,0.8-0.4c0.4,0.1,0.9,0.3,1.5,0.6
		c0.6,0.3,0.9,0.6,1,0.9c0,0.1,0,0.3-0.2,0.5s-0.3,0.5-0.4,0.6l-0.6,2.9c1.1-0.8,2-1.1,2.6-0.9c0.4,0.1,0.8,0.4,1.2,0.9
		S156.6,306.4,156.8,307z M154.7,306.7c-0.5,0.1-1.1,0.4-1.7,0.8c-0.7,0.4-1.1,0.8-1.3,1.2l-0.9,4.8c0.1,0.1,0.2,0.2,0.4,0.4
		c0.4,0.1,1-0.6,1.9-2.3s1.4-3,1.7-4.2C154.6,307.1,154.7,306.9,154.7,306.7z"/>
	<path class="st1" d="M165.7,306.9c0.6,0.4,1.1,1.1,1.3,2s0.3,1.9,0.2,3.1c-0.2,1.6-0.6,3-1.3,4.1c-0.7,1.2-1.6,1.7-2.5,1.5
		c-0.3-0.1-0.8-0.3-1.5-0.5c-0.5-0.1-0.9-0.2-1.3-0.4c-0.7-0.3-1.1-0.9-1.4-1.9c-0.3-0.9-0.3-2-0.2-3.2s0.4-2.3,0.9-3.3
		c0.5-1.1,1.2-1.8,2.1-2.1c0.1-0.1,0.3-0.1,0.5,0c0.2,0,0.7,0.2,1.4,0.4C164.4,306.5,165,306.7,165.7,306.9z M163.5,308.3
		c-0.3,0-0.7,0.3-1,1.1c-0.4,0.8-0.6,1.5-0.7,2.2c-0.1,0.9-0.1,1.7,0,2.6s0.3,1.4,0.6,1.6c0.4,0.1,0.8-0.3,1.2-1.2s0.6-1.9,0.8-3
		c0.1-0.6,0.1-1.2,0-1.8C164.2,308.8,164,308.3,163.5,308.3z"/>
	<path class="st1" d="M177.1,314.6c0.1,0.2-0.1,0.7-0.7,1.6c-0.6,0.9-1.3,1.6-1.9,1.9c-0.1,0-0.2,0-0.3,0c-0.5,0-1.1-0.2-1.8-0.5
		c-0.8-0.3-1.3-0.6-1.6-1c-0.7-0.9-1-2.2-0.9-3.8c0-1.5,0.4-2.8,1-4c0.7-1.2,1.5-1.9,2.6-1.9c0.4,0,0.8,0.1,1.3,0.3
		c0.6,0.3,1.2,0.6,1.6,1.1c0.1,0.1,0.2,0.4,0.3,1s0.2,1.1,0.1,1.7c0,0.8-0.2,1.4-0.4,1.7c-1.2,0.4-2.5,0.6-3.8,0.6
		c0,0.6,0,1.2,0.2,1.9s0.3,1,0.5,1s0.5-0.2,0.9-0.6c0.3-0.3,0.5-0.6,0.6-0.9c0.1-0.4,0.2-0.7,0.4-1.1c0.2,0,0.6,0.1,1.1,0.3
		C176.6,314.2,177,314.4,177.1,314.6z M174,309c-0.2,0-0.5,0.3-0.9,0.9c-0.4,0.7-0.6,1.3-0.7,1.9c0.5,0,1-0.1,1.3-0.4
		c0.2-0.1,0.3-0.7,0.3-1.8C174.1,309.2,174.1,309,174,309z"/>
	<path class="st1" d="M188.5,315.4c0,0.2-0.2,0.7-0.6,1.3c-0.4,0.6-0.8,0.9-1.1,0.9c-0.5,0-1.7-1.4-3.5-4c-0.1,0.1-0.3,0.4-0.6,0.7
		l0.1,2.1c0,0.1,0,0.2,0.1,0.3c0,0.2,0.1,0.3,0.1,0.3c0.1,0.4,0,0.7-0.2,0.8c-0.1,0.1-0.3,0.1-0.5,0.1c-0.5,0-0.9,0-1.3-0.2
		c-0.5-0.2-0.8-0.4-0.8-0.6l-0.7-13.3c0-0.2,0-0.4,0.1-0.6s0.2-0.4,0.4-0.5h0.1c0.3,0,0.8,0.1,1.3,0.2c0.6,0.2,0.9,0.3,1,0.5
		c0,0.1,0.1,0.2,0.1,0.2c0,0.1,0,0.2-0.1,0.4s-0.1,0.3-0.1,0.4l0.3,6.2l2.5-3.8c0.1-0.2,0.3-0.3,0.6-0.4c0.2,0,0.6,0.1,1,0.4
		c0.5,0.3,0.7,0.6,0.8,0.9c0,0.1-0.2,0.6-0.8,1.4c-0.8,1.3-1.3,2.1-1.4,2.4l2.5,3.1c0.1,0.1,0.3,0.2,0.5,0.3
		C188.4,315.2,188.5,315.3,188.5,315.4z"/>
	<path class="st1" d="M198,312.8c0.1,0.2,0,0.7-0.5,1.7s-1,1.7-1.6,2.2c-0.1,0-0.2,0.1-0.3,0.1c-0.5,0.1-1.1,0-1.9-0.2
		c-0.8-0.2-1.4-0.4-1.7-0.7c-0.8-0.8-1.3-2-1.5-3.6c-0.2-1.5-0.1-2.9,0.4-4.1c0.5-1.3,1.2-2.1,2.2-2.2c0.4-0.1,0.8,0,1.4,0.1
		c0.7,0.2,1.3,0.4,1.7,0.8c0.1,0.1,0.3,0.4,0.4,0.9c0.2,0.6,0.3,1.1,0.4,1.7c0.1,0.8,0.1,1.4-0.2,1.7c-1.2,0.6-2.4,0.9-3.7,1.2
		c0.1,0.6,0.2,1.2,0.5,1.8s0.5,0.9,0.7,0.9s0.5-0.3,0.8-0.7s0.4-0.7,0.4-0.9c0-0.4,0.1-0.8,0.2-1.2c0.2,0,0.6,0,1.2,0.1
		S197.9,312.7,198,312.8z M194.1,307.8c-0.2,0-0.4,0.4-0.7,1.1s-0.4,1.4-0.4,2c0.5-0.1,0.9-0.3,1.2-0.6c0.2-0.2,0.2-0.8,0-1.8
		C194.2,308,194.2,307.8,194.1,307.8z"/>
	<path class="st1" d="M209.1,312.7c0.1,0.2,0.2,0.4,0.3,0.6c0.1,0.4,0,0.6-0.3,0.8c-0.1,0.1-0.2,0.1-0.4,0.1
		c-0.4,0.1-0.9,0.1-1.5,0.1s-0.9-0.1-1.1-0.2c-0.1-0.1-0.1-0.1-0.1-0.2s0-0.4,0.1-0.7s0.2-0.5,0.1-0.7c-0.9-4.6-1.4-7-1.5-7
		c-0.2,0-0.5,0.6-0.9,1.8c-0.4,1.3-0.6,2.3-0.5,2.9l0.7,3.3c0.2,0.1,0.3,0.3,0.3,0.5c0.1,0.4,0,0.8-0.4,1c0,0-0.1,0.1-0.2,0.1
		c-0.3,0.1-0.8,0.1-1.4,0.1c-0.6,0-1-0.1-1.1-0.2s-0.1-0.2-0.2-0.3c0-0.1,0-0.3,0.1-0.5s0.1-0.3,0.1-0.4l-1.7-8.2
		c0-0.1-0.1-0.2-0.2-0.3c-0.1-0.1-0.2-0.3-0.2-0.4c0-0.3,0.2-0.5,0.5-0.6c0.2-0.1,0.6-0.1,1.4-0.1c0.8,0,1.2,0.1,1.4,0.3
		c0.1,0.1,0.1,0.3,0.1,0.6c0,0.4-0.1,0.7-0.1,0.7c0,0.1,0.1,0.3,0.2,0.4c0.1-0.6,0.2-1.2,0.4-1.7c0.3-0.6,0.6-1,1-1.1s0.9,0,1.6,0.1
		c0.7,0.1,1.1,0.3,1.2,0.5C207.4,305.1,208.1,307.8,209.1,312.7z"/>
	<path class="st1" d="M221.6,295.7c0-0.1,0.4,1,1.2,3.2c2.3,6.5,2.6,10.1,0.8,10.9c-0.3,0.1-0.7,0.2-1.2,0.2s-1,0-1.5,0
		c-0.4,0-0.8,0.1-1.2,0.1s-0.8,0-1.1-0.2c-0.6-0.3-1.4-1.3-2.3-2.9c-0.8-1.5-1.5-3.2-2.2-5.1c-0.5-1.5-0.9-2.8-1.1-4
		c-0.1-0.4,0-0.7,0.3-0.9c0.1-0.1,0.6-0.2,1.4-0.2c0.8-0.1,1.3,0,1.5,0.1c0.1,0,0.1,0.1,0.2,0.2c0.1,0.1,0.1,0.4,0,0.7
		c0,0.3,0,0.5,0.1,0.7c0,0.2,0.2,0.9,0.6,1.9c0.7,2,1.4,3.8,2.2,5.3c1,2,1.6,2.9,2.1,2.7s0.6-1.4,0.2-3.4c-0.3-1.6-0.8-3.3-1.5-5.4
		c-0.5-1.3-0.8-2.1-1-2.5c0-0.2-0.1-0.4-0.3-0.5c-0.2-0.2-0.3-0.3-0.3-0.4c-0.2-0.4-0.2-0.7,0.1-1c0-0.1,0.1-0.1,0.3-0.2
		c0.3-0.1,0.8-0.2,1.5-0.2s1.1,0,1.2,0C221.4,295.1,221.5,295.3,221.6,295.7z"/>
	<path class="st1" d="M227.2,294c0,0,0,0.1,0.1,0.1c0.1,0.2,0.2,0.6,0.3,1c0.1,0.5,0.1,0.7,0,0.8c-0.1,0.1-0.6,0.2-1.6,0.3
		c-1,0.1-1.5,0.1-1.6,0c-0.1,0-0.1-0.1-0.2-0.2c-0.1-0.3-0.2-0.6-0.2-1c0-0.5,0.1-0.7,0.3-0.9c0.2-0.2,0.7-0.3,1.4-0.3
		S227,293.8,227.2,294z M232.1,305.4c0.2,0.4,0.2,0.7-0.1,0.9c-0.1,0-0.1,0.1-0.2,0.1c-0.4,0.2-0.9,0.3-1.6,0.4
		c-0.7,0.1-1.2,0.1-1.3-0.1c-0.1-0.1-0.1-0.3-0.1-0.6c0-0.2-0.1-0.5-0.2-1l-3-6.9c-0.3-0.4-0.5-0.6-0.6-0.8
		c-0.1-0.1,0.1-0.3,0.5-0.5c0.3-0.1,0.8-0.2,1.5-0.3c0.7-0.1,1.1,0,1.3,0.1c0.1,0,0.1,0.1,0.1,0.1c0,0.1,0,0.3,0,0.6
		c0,0.3,0,0.5,0,0.6l2.9,6.6c0,0.1,0.2,0.2,0.4,0.3C231.9,305.2,232,305.3,232.1,305.4z"/>
	<path class="st1" d="M236.7,293.7c0.1,0.2,0.1,0.4,0.1,0.6s-0.1,0.3-0.3,0.4h-0.1c-0.2,0-0.5,0.2-1.1,0.4l3.2,6.3
		c0,0,0.1,0.1,0.2,0.2s0.3,0.3,0.3,0.4c0.2,0.3,0,0.6-0.4,0.8c-0.2,0.1-0.7,0.2-1.4,0.3c-0.8,0.1-1.2,0.1-1.3-0.1
		c-0.1-0.1-0.1-0.2-0.1-0.5s-0.1-0.5-0.1-0.6l-2.9-5.7l-0.5,0.3c-0.2,0.1-0.5,0.1-1-0.2c-0.5-0.2-0.8-0.4-0.9-0.6
		c-0.1-0.2-0.1-0.3,0-0.5s0.2-0.3,0.3-0.4l1.2-0.6l-0.7-1.4c-0.3-0.1-0.5-0.3-0.6-0.6c-0.1-0.2-0.1-0.4,0.1-0.6
		c0.1-0.1,0.2-0.1,0.4-0.2c0.4-0.2,0.9-0.4,1.5-0.5s1-0.2,1.2-0.1c0.1,0,0.2,0.1,0.2,0.2c0.1,0.1,0.1,0.3,0,0.6
		c-0.1,0.3-0.1,0.5,0,0.6l0.4,0.9l0.5-0.3c0.1-0.1,0.4,0,1,0.2C236.3,293.4,236.6,293.6,236.7,293.7z"/>
	<path class="st1" d="M244.3,288.5c0,0,0,0.1,0,0.4c0,0.2,0,0.3,0.1,0.4l4,6.8c1,1.7,1,3.2,0.1,4.4c-0.5,0.6-0.9,1-1.4,1.3
		c-0.7,0.4-1.5,0.5-2.2,0.4c-0.2,0-0.6-0.2-1.2-0.4c0,0-0.2,0-0.5-0.1c-0.2-0.1-0.3-0.1-0.4-0.3c-0.1-0.1,0-0.4,0.2-0.6
		c0,0,0.1-0.1,0.2-0.1c0.2-0.1,0.5-0.3,0.9-0.3c0.4-0.1,0.7-0.1,0.9-0.1c0.3,0.1,0.6,0.2,0.9,0.3c0.3,0.1,0.6,0.1,0.8,0
		c0.4-0.2,0.5-0.7,0.3-1.4c-0.1-0.3-0.4-0.9-0.9-1.6c0,0.1,0,0.3-0.1,0.6c0,0.2-0.1,0.4-0.1,0.5c-0.1,0.2-0.1,0.3-0.3,0.4
		c-0.5,0.3-1.1,0.5-1.6,0.4c-1.7-0.3-3-1.3-4.1-3.1c-0.7-1.1-1.1-2.3-1.1-3.5c-0.1-1.3,0.2-2.3,0.9-3c0.1-0.1,0.1-0.1,0.2-0.1
		c0.2-0.1,0.4-0.1,0.7-0.1s0.5,0.1,0.8,0.1c0-0.2-0.1-0.4-0.1-0.6s0-0.4,0.1-0.5c0.2-0.2,0.6-0.3,1.3-0.5s1.1-0.2,1.2-0.1
		C244.1,288.1,244.2,288.3,244.3,288.5z M243.8,293.9c-0.3-0.8-0.6-1.4-0.9-1.8c-0.5-0.8-0.9-1.2-1.2-1.2s-0.3,0.6-0.1,1.6
		s0.5,1.8,0.9,2.5c0.7,1.2,1.4,2.1,2.1,2.6C244.6,296.3,244.3,295.1,243.8,293.9z"/>
	<path class="st1" d="M255.7,288.3c0.2,0.1,0.3,0.7,0.4,1.7c0,1.1-0.1,2-0.4,2.6c0,0.1-0.1,0.1-0.2,0.2c-0.4,0.3-1,0.5-1.7,0.7
		c-0.8,0.2-1.4,0.3-1.8,0.2c-1.1-0.3-2.1-1.1-3-2.4c-0.9-1.2-1.4-2.5-1.6-3.8c-0.2-1.4,0.1-2.4,0.9-3c0.3-0.2,0.7-0.4,1.3-0.5
		c0.7-0.2,1.3-0.2,1.9-0.1c0.2,0,0.4,0.2,0.8,0.6c0.4,0.4,0.8,0.8,1.1,1.3c0.5,0.7,0.7,1.2,0.7,1.6c-0.8,1-1.7,1.9-2.7,2.7
		c0.3,0.5,0.7,1,1.2,1.4s0.8,0.6,1,0.5s0.3-0.5,0.4-1c0-0.5,0-0.8-0.1-1c-0.1-0.3-0.3-0.7-0.4-1.1c0.1-0.1,0.5-0.3,1.1-0.4
		C255.1,288.2,255.5,288.2,255.7,288.3z M249.9,285.6c-0.2,0.1-0.2,0.5-0.1,1.3c0.1,0.8,0.3,1.4,0.6,1.9c0.4-0.3,0.7-0.7,0.8-1.1
		c0.1-0.2-0.2-0.8-0.8-1.6C250.1,285.8,250,285.6,249.9,285.6z"/>
	<path class="st1" d="M259.5,276.4c0.4,1.2,1.1,3,2.2,5.2c1,2,1.6,3.2,1.8,3.4c0.2,0.2,0.4,0.5,0.6,0.7c0.2,0.3,0.3,0.6,0.1,0.8
		c-0.2,0.2-0.8,0.5-1.7,1c-1,0.4-1.5,0.6-1.7,0.6c-0.1,0-0.2-0.1-0.3-0.2s-0.2-0.2-0.2-0.2c-1.5-1-2.8-1.8-3.7-2.5
		c-1.1-0.9-2.2-1.9-3.4-3.1c0,0-0.1-0.1-0.2-0.2c-0.1-0.1-0.2-0.2-0.2-0.2c-0.2-0.2-0.2-0.4-0.1-0.6c0.1-0.1,0.5-0.3,1.2-0.7
		c0.8-0.4,1.2-0.5,1.4-0.4c0.1,0,0.1,0.1,0.2,0.2c0.1,0.1,0.1,0.2,0.2,0.4c0.1,0.2,0.1,0.3,0.2,0.4c0.7,0.6,1.3,1.2,1.9,1.7
		c1.3,1.1,2.2,1.8,2.5,1.9c-0.5-0.9-1.1-2.2-1.9-3.7c-0.3-0.8-0.7-1.5-1-2.3c-0.1-0.2-0.2-0.4-0.3-0.6s-0.1-0.4,0.1-0.6
		c0.1-0.1,0.4-0.3,1.1-0.5C258.7,276.4,259.2,276.3,259.5,276.4z"/>
	<path class="st1" d="M270.5,275.2c0.2,0.1,0.4,0.6,0.6,1.6c0.2,1.1,0.2,2,0,2.7c0,0.1-0.1,0.2-0.2,0.3c-0.3,0.3-0.9,0.6-1.6,1
		c-0.8,0.4-1.4,0.5-1.8,0.4c-1.1-0.2-2.2-0.8-3.4-2c-1.1-1.1-1.8-2.3-2.1-3.5c-0.4-1.4-0.2-2.4,0.5-3.1c0.3-0.3,0.6-0.5,1.2-0.7
		c0.6-0.3,1.3-0.4,1.9-0.4c0.2,0,0.5,0.2,0.9,0.5c0.5,0.3,0.9,0.7,1.3,1.1c0.6,0.6,0.9,1.1,0.9,1.5c-0.6,1.1-1.4,2.2-2.3,3.1
		c0.4,0.4,0.9,0.8,1.4,1.2s0.9,0.5,1.1,0.3s0.3-0.5,0.2-1c0-0.5-0.1-0.8-0.2-1c-0.2-0.3-0.4-0.7-0.5-1c0.1-0.2,0.5-0.3,1-0.6
		C270,275.3,270.3,275.2,270.5,275.2z M264.4,273.5c-0.2,0.1-0.1,0.6,0.1,1.3c0.2,0.7,0.5,1.3,0.9,1.8c0.4-0.4,0.6-0.8,0.7-1.2
		c0-0.2-0.3-0.7-1-1.5C264.6,273.6,264.4,273.5,264.4,273.5z"/>
	<path class="st1" d="M272.1,264c0.2,0.1,0.2,0.2,0.2,0.5c0,0.2-0.1,0.3-0.1,0.5c0.4,1.3,0.8,3.1,1.4,5.4c1.4,1.3,2.2,1.9,2.2,2
		c0.1,0,0.2,0.1,0.4,0.2s0.4,0.2,0.5,0.3c0.2,0.2,0.2,0.3,0.1,0.5c0,0.1-0.1,0.3-0.3,0.5c-0.3,0.3-0.7,0.6-1.2,0.9
		c-0.6,0.4-1.1,0.4-1.4,0.2c-0.1-0.1-0.2-0.2-0.3-0.5c-0.1-0.2-0.2-0.4-0.3-0.5l-5.3-4.8c-0.6-0.3-0.9-0.5-0.9-0.5
		c-0.3-0.2-0.3-0.5-0.2-0.8c0.1-0.1,0.2-0.3,0.3-0.4c0.3-0.3,0.6-0.6,1-0.8c0.4-0.3,0.7-0.4,0.9-0.3c0.1,0,0.1,0,0.2,0.1
		c0,0,0.2,0.3,0.5,0.8l0.6,0.6c-0.2-0.6-0.4-1.1-0.6-1.7c-0.2-0.7-0.3-1.1-0.2-1.3c0.1-0.2,0.5-0.4,1.2-0.6
		C271.5,263.9,271.9,263.9,272.1,264z"/>
	<path class="st1" d="M273,257.7c0,0,0.1,0,0.1,0.1c0.2,0.2,0.4,0.4,0.7,0.8s0.4,0.6,0.4,0.7s-0.5,0.4-1.3,1
		c-0.8,0.5-1.3,0.8-1.4,0.7c-0.1,0-0.2-0.1-0.2-0.1c-0.3-0.2-0.5-0.5-0.6-0.8c-0.2-0.4-0.2-0.7-0.1-0.9c0.1-0.2,0.5-0.6,1.1-0.9
		C272.3,257.8,272.7,257.6,273,257.7z M282.7,265.5c0.4,0.2,0.5,0.5,0.4,0.9c0,0.1-0.1,0.1-0.1,0.2c-0.3,0.3-0.7,0.7-1.2,1.1
		c-0.6,0.4-1,0.6-1.2,0.6c-0.1,0-0.2-0.2-0.3-0.5c-0.1-0.2-0.3-0.4-0.7-0.7l-5.9-4.7c-0.4-0.2-0.7-0.3-0.9-0.4
		c-0.1-0.1,0-0.3,0.2-0.7c0.2-0.3,0.6-0.6,1.2-1s1-0.5,1.2-0.5c0.1,0,0.1,0,0.2,0.1s0.2,0.2,0.3,0.5s0.2,0.4,0.3,0.5l5.7,4.5
		c0.1,0.1,0.3,0.1,0.5,0.1C282.5,265.4,282.6,265.4,282.7,265.5z"/>
	<path class="st1" d="M276.5,252.9c0.1,0,0.2,0.1,0.3,0.2c0.2,0.2,0.5,0.4,0.7,0.7s0.3,0.5,0.3,0.7c0,0.1-0.4,0.5-1.2,1
		c-0.8,0.6-1.2,0.8-1.4,0.8c-0.1,0-0.2,0-0.3-0.1c-0.3-0.2-0.5-0.5-0.7-0.8c-0.2-0.4-0.3-0.7-0.2-0.9c0.1-0.3,0.5-0.6,1.1-1
		C275.8,253,276.2,252.9,276.5,252.9z M278.9,254.8c0.1,0,0.1,0,0.2,0.1s0.2,0.2,0.3,0.5s0.3,0.4,0.4,0.5l7.1,5.2c0,0,0.1,0,0.2,0.1
		s0.2,0.2,0.3,0.2c0.9,0.7,1.3,1.4,1.3,2.1c0,0.2-0.1,0.5-0.4,0.8c-0.5,0.7-1.1,1.3-1.7,1.8c-0.3,0.2-0.8,0.4-1.4,0.6
		c-0.7,0.2-1.2,0.3-1.4,0.1c-0.1-0.1-0.2-0.3-0.2-0.6c0,0,0-0.1,0.1-0.2c0.4-0.6,0.9-1,1.3-1.2c0.2,0,0.4,0,0.5,0
		c0.3,0,0.5-0.2,0.7-0.4c0.1-0.1-0.5-0.6-1.6-1.5l-7.4-5.4c-0.5-0.1-0.7-0.3-0.9-0.4c-0.1-0.1-0.1-0.3,0.2-0.7
		c0.2-0.3,0.6-0.6,1.2-1S278.7,254.8,278.9,254.8z"/>
</g>
<g>
	<path class="st1" d="M114.2,64.5c0.2,0.5,0.3,1,0.2,1.5c0.2,1.5,0.1,3.2-0.3,5.1c-0.4,2-1,3.3-1.8,3.7c-0.1,0.1-0.2,0.1-0.3,0.2
		c-1,0.2-2.1,0.5-3.4,0.7c-2.3,0.4-4.6-0.2-6.9-1.7c-2.1-1.4-3.9-3.3-5.4-5.9c-1.9-3.1-3-6.2-3.3-9.3c-0.3-3.3,0.5-5.6,2.3-6.9
		c0.7-0.5,2-0.8,3.9-0.9s3.3,0.1,4.3,0.6s2.3,2,4.1,4.6c0.4,0.5,0.7,1.2,0.8,1.9c0.2,0.8,0.1,1.3-0.3,1.5c-0.7,0.3-1.7,0.6-2.9,0.9
		c-1.4,0.3-2.3,0.4-2.6,0.2c-0.1-0.1-0.2-0.1-0.2-0.2c-0.1-0.2-0.2-0.4-0.2-0.8s0-0.6-0.2-0.8c-0.4-0.8-0.8-1.6-1.2-2.3
		c-0.6-1-1.1-1.6-1.6-1.8c-0.6,1.5-0.6,3.4,0,5.7c0.5,1.9,1.4,3.9,2.7,6c1,1.6,2,2.9,3.1,4s1.9,1.6,2.4,1.6c0.3,0,0.5-0.7,0.9-2.1
		c0.3-1.4,0.4-2.4,0.4-3.1c0,0-0.1-0.4-0.3-1.1c-0.1-0.4-0.1-0.7,0.1-0.9c0.3-0.3,1.2-0.5,3-0.7C113.2,64.2,114.1,64.2,114.2,64.5z"
		/>
	<path class="st1" d="M127.1,45.7c0.2,0.1,0.4,0.3,0.5,0.5s0.1,0.5,0,0.9s-0.2,0.6-0.1,0.7l6,14.2c0.1,0.1,0.2,0.3,0.5,0.6
		s0.4,0.4,0.5,0.6c0.2,0.4-0.1,0.8-0.6,1.2c-0.3,0.2-1.1,0.4-2.4,0.6c-1.4,0.2-2.3,0.2-2.6-0.1c-0.2-0.2-0.3-0.6-0.4-1.1
		c0-0.6-0.1-1-0.2-1.2c-0.1-0.2-0.2-0.5-0.4-0.8c0.1,1.1,0.1,2.2-0.1,3.3c-0.3,1.2-0.8,2-1.4,2.3c-0.7,0.3-1.7,0.4-3,0.4
		s-2.1-0.2-2.4-0.5c-1.1-1.1-3.4-5.8-6.9-14.1c-0.3-0.3-0.6-0.7-0.7-1.1c-0.3-0.6-0.2-1.2,0.2-1.6c0.1-0.1,0.4-0.3,0.7-0.4
		c0.7-0.3,1.6-0.5,2.6-0.7s1.7-0.2,2-0.1c0.2,0.1,0.3,0.2,0.3,0.3c0.1,0.2,0.1,0.7,0,1.3s-0.1,1.1,0,1.3c3.3,8.1,5.1,12.1,5.3,12.1
		c0.3,0,0.7-1.3,1-3.7c0.3-2.5,0.3-4.2-0.2-5.3l-2.4-5.7c-0.4-0.2-0.6-0.4-0.8-0.8c-0.3-0.8-0.2-1.5,0.4-2.1
		c0.1-0.1,0.2-0.1,0.3-0.2c0.6-0.2,1.4-0.4,2.6-0.6C126.3,45.6,126.9,45.6,127.1,45.7z"/>
	<path class="st1" d="M138.2,37.6c0,0,0.1,0.1,0.1,0.2c0.1,0.5,0.2,1.1,0.2,1.9c0,0.9-0.1,1.4-0.2,1.5c-0.2,0.1-1.2,0.2-2.9,0.1
		c-1.8-0.1-2.7-0.2-2.9-0.4c-0.1-0.1-0.2-0.2-0.2-0.5c-0.2-0.6-0.2-1.2-0.1-1.9c0.1-0.8,0.4-1.3,0.8-1.5c0.5-0.2,1.4-0.3,2.7-0.2
		C137,36.9,137.8,37.2,138.2,37.6z M144.3,59.7c0.3,0.7,0.2,1.3-0.4,1.7c-0.1,0.1-0.2,0.1-0.4,0.2c-0.8,0.2-1.8,0.3-3,0.3
		c-1.3,0-2.1-0.2-2.4-0.5c-0.2-0.1-0.2-0.5,0-1.1c0.1-0.4,0-1-0.2-1.8l-3.8-13.4c-0.5-0.7-0.8-1.2-0.8-1.5c-0.1-0.3,0.3-0.5,1.1-0.7
		c0.6-0.2,1.6-0.2,2.8-0.2c1.3,0.1,2,0.2,2.4,0.5c0.1,0.1,0.2,0.2,0.2,0.3c0,0.2,0,0.5-0.1,1.1s-0.1,0.9-0.1,1.2l3.6,12.8
		c0.1,0.2,0.3,0.4,0.6,0.7C144.1,59.3,144.3,59.5,144.3,59.7z"/>
	<path class="st1" d="M159.1,54.1c0.2,1.2,0,2.2-0.7,3.1s-1.7,1.4-3.1,1.7c-0.3,0.1-0.7,0.1-1.2,0c-0.8-0.1-1.2-0.1-1.2-0.1
		c-0.4,0-0.8,0-1.2-0.1s-0.8-0.1-1.1-0.3c-0.6-0.3-1.1-0.9-1.7-1.5c-0.5-0.5-0.9-1.1-1.4-1.7s-0.7-0.9-0.7-1
		c-0.1-0.3,0.1-0.6,0.5-0.8c0.1-0.1,0.3-0.1,0.6-0.2c0.7-0.1,1.5-0.2,2.5-0.2s1.6,0,1.7,0.1c0.1,0.1,0.3,0.7,0.7,1.8
		c0.3,1,0.6,1.4,1,1.4c0.5-0.1,0.6-0.8,0.4-2.2c-0.3-1.7-1-2.7-1.9-3c-2.3-0.6-3.8-1.2-4.6-1.9c-1-0.8-1.6-2.1-2-4
		c-0.2-1.2-0.1-2.5,0.4-3.7s1.1-2,2-2.4c0.4-0.2,1.7,0,4,0.6c0.2,0,0.8,0,1.8,0.1c0.7,0,1.2,0.2,1.6,0.4c0.5,0.4,0.9,1.2,1.1,2.3
		c0.2,0.8,0.3,1.6,0.5,2.4c0.3,0.7,0.4,1.1,0.5,1.3c0.1,0.6-0.1,1-0.7,1.2c-0.3,0.1-0.9,0.1-1.9,0c-1-0.2-1.7-0.4-2-0.7
		c-0.1-0.1-0.3-0.9-0.6-2.4c-0.3-1.4-0.6-2.1-0.8-2.1c-0.3,0.1-0.6,0.5-0.7,1.4c-0.1,0.9-0.1,1.8,0,2.7c0.2,1.2,0.6,1.8,1.1,2.1
		c1.2,0.4,2.3,0.8,3.5,1.2s2,0.9,2.5,1.5C158.4,51.6,158.8,52.7,159.1,54.1z"/>
	<path class="st1" d="M169.8,55.9c0.1,0.8-0.1,1.3-0.7,1.5c-0.1,0-0.3,0.1-0.5,0.1c-0.8,0.1-1.8,0-3-0.3c-1.3-0.3-2-0.6-2.3-1
		c-0.1-0.2,0-0.5,0.2-1c0.2-0.3,0.2-1,0.2-1.8l-1-13.9c-0.3-0.8-0.5-1.4-0.5-1.7s0.4-0.5,1.2-0.5c0.7,0,1.6,0.1,2.8,0.4
		c1.2,0.3,1.9,0.6,2.2,0.9c0.1,0.1,0.1,0.2,0.1,0.3c0,0.2-0.1,0.5-0.3,1s-0.3,0.9-0.3,1.1l0.9,13.3c0,0.2,0.2,0.5,0.4,0.8
		C169.6,55.5,169.7,55.7,169.8,55.9z M168.2,33c0,0,0,0.1,0.1,0.3c0,0.5,0,1.1-0.2,1.9c-0.2,0.9-0.3,1.3-0.5,1.4
		c-0.2,0.1-1.2-0.1-2.9-0.5s-2.6-0.8-2.8-1c-0.1-0.1-0.1-0.3-0.1-0.5c0-0.6,0.1-1.2,0.3-1.9c0.3-0.8,0.7-1.2,1.1-1.3
		c0.5-0.1,1.4,0,2.7,0.4C167.2,32.1,168,32.5,168.2,33z"/>
	<path class="st1" d="M189.1,54.9c0.2,0.4,0.2,0.9,0.2,1.3c0,0.7-0.3,1.1-0.8,1.3c-0.2,0.1-0.4,0.1-0.8,0.1c-0.8,0-1.6-0.2-2.7-0.5
		c-1-0.3-1.6-0.5-1.9-0.8c-0.1-0.1-0.2-0.3-0.1-0.4c0-0.2,0.2-0.6,0.6-1.2c0.4-0.5,0.5-0.9,0.6-1.2c0.5-8.7,0.7-13.1,0.5-13.2
		c-0.3-0.1-1.1,0.8-2.4,2.9c-1.4,2.1-2.1,3.8-2.2,4.9l-0.3,6.2c0.3,0.3,0.4,0.7,0.4,1.1c0,0.8-0.4,1.4-1.2,1.7c-0.1,0-0.2,0.1-0.4,0
		c-0.6,0-1.5-0.2-2.6-0.5s-1.8-0.6-1.9-0.8c-0.1-0.2-0.2-0.4-0.2-0.6s0.2-0.5,0.4-0.8c0.3-0.3,0.4-0.5,0.4-0.6l0.8-15.4
		c0-0.2-0.1-0.4-0.2-0.7c-0.2-0.3-0.2-0.5-0.1-0.7c0.2-0.5,0.5-0.7,1.1-0.8c0.4-0.1,1.2,0.1,2.5,0.5c1.4,0.4,2.1,0.8,2.3,1.2
		c0.1,0.2,0,0.6-0.2,1.1c-0.3,0.8-0.4,1.2-0.4,1.3c0,0.2,0,0.5,0.1,0.8c0.4-1.1,0.9-2,1.5-2.9c0.8-1,1.5-1.5,2.3-1.4
		c0.8,0,1.7,0.3,2.9,0.9c1.2,0.6,1.8,1.1,2,1.5C189.5,40.6,189.6,45.8,189.1,54.9z"/>
	<path class="st1" d="M207,54.4c0.1,0.4-0.5,1.2-1.8,2.6c-1.5,1.5-2.8,2.4-4,2.8c-0.1,0-0.3,0-0.6,0c-0.8-0.2-1.9-0.6-3.2-1.4
		c-1.4-0.8-2.2-1.6-2.5-2.3c-0.9-1.9-1.1-4.3-0.5-7.1c0.5-2.7,1.6-5,3.1-6.9c1.6-2,3.4-2.9,5.2-2.6c0.7,0.1,1.5,0.4,2.3,1
		c1.1,0.7,1.9,1.5,2.5,2.4c0.2,0.2,0.2,0.9,0.2,1.9c0,1.1-0.1,2.1-0.3,3.1c-0.3,1.5-0.7,2.4-1.3,2.9c-2.4,0.3-4.7,0.2-7.1-0.2
		c-0.3,1.1-0.3,2.2-0.3,3.4c0.1,1.2,0.3,1.9,0.6,2c0.4,0.1,1-0.1,1.8-0.8c0.7-0.5,1.1-1,1.3-1.4c0.3-0.6,0.6-1.3,1-1.9
		c0.4,0,1,0.3,1.9,0.9C206.4,53.6,206.9,54.1,207,54.4z M203.2,43.3c-0.4-0.1-1,0.4-1.9,1.4c-0.9,1.1-1.5,2.2-1.8,3.3
		c1,0.2,1.8,0.1,2.5-0.2c0.4-0.2,0.8-1.2,1.2-3.1C203.3,43.8,203.3,43.4,203.2,43.3z"/>
</g>
<g>
	<path class="st1" d="M77.4,267.9c2.2,1.1,4.3,2.4,6.3,3.6l3.1,1.9l3,2c1,0.7,2.1,1.2,3.1,1.8c1.1,0.6,2,1.4,2.7,2.3
		c0.8,0.9,1.5,2,2,3.1c0.6,1.2,1.1,2.4,1.3,3.9l-0.5,0.5c-1.6,0-2.9-0.3-4.1-0.7c-1.2-0.4-2.3-0.9-3.4-1.6c-1-0.6-1.9-1.4-2.7-2.4
		s-1.5-1.9-2.3-2.8l-2.4-2.7l-2.3-2.8c-1.5-1.9-3.1-3.8-4.5-5.7L77.4,267.9z"/>
</g>
<g>
	<path class="st1" d="M304.1,226.8c-0.8,2.3-1.7,4.6-2.6,6.8l-1.4,3.3l-1.5,3.3c-0.5,1.1-0.9,2.2-1.3,3.4c-0.4,1.1-1.1,2.2-1.9,3.1
		c-0.8,0.9-1.7,1.7-2.8,2.5c-1.1,0.7-2.2,1.4-3.7,1.9l-0.6-0.4c-0.2-1.5-0.1-2.9,0.1-4.2s0.6-2.5,1-3.6c0.5-1.1,1.1-2.1,1.9-3
		s1.7-1.7,2.5-2.7l2.3-2.8l2.4-2.7c1.6-1.8,3.2-3.6,5-5.3L304.1,226.8z"/>
</g>
<polygon class="st3" points="74.5,97.7 70.2,95 65.5,97 66.8,92 63.4,88.2 68.5,87.9 71.1,83.5 73,88.2 78,89.4 74,92.6 "/>
<polygon class="st3" points="243,67 238.7,64.3 234,66.3 235.3,61.4 231.9,57.5 237,57.2 239.6,52.8 241.5,57.6 246.5,58.7 
	242.5,61.9 "/>
</svg>
