<?xml version="1.0" encoding="utf-8"?>
<!-- Generator: Adobe Illustrator 22.0.1, SVG Export Plug-In . SVG Version: 6.00 Build 0)  -->
<svg version="1.1" id="Laag_1" xmlns="http://www.w3.org/2000/svg" xmlns:xlink="http://www.w3.org/1999/xlink" x="0px" y="0px"
	 viewBox="0 0 250 275" style="enable-background:new 0 0 250 275;" xml:space="preserve">
<style type="text/css">
	.st0{opacity:0.5;}
	.st1{fill:#FFFFFF;}
</style>
<g class="st0">
	<g>
		<path class="st1" d="M134.9,199.4c2.1-2,4.1-4.1,5.8-6.6c0.4-0.6,0.9-1.3,1.3-1.9c0.2-0.4,0.4-0.6-0.3-0.9
			c-3.2-1.4-6.4-2.4-9.8-3.3c-2-0.5-4.1-1-6.2-1.1c-0.7,0-1.3-0.2-2-0.3c-0.1,0.5-0.3,1.1-0.2,1.6c0.1,0.8-0.3,0.9-1,0.9
			c-2.2,0-4.3-0.1-6.5,0.2c-3.2,0.4-6.3,1.1-9.4,2c-3.7,1.1-7,2.8-10.2,4.8c-3.3,2-6.1,4.6-8.7,7.4c-1.8,2-3.4,4.1-4.9,6.4
			c-1.5,2.5-3,5.1-3.9,7.9c-0.5,1.4-0.9,2.8-1.2,4.3c-0.2,1.2-0.1,1.7,1,2.4c1.5,1,3.3,1.5,5,2.1c3.3,1.1,6.7,1.8,10.1,2.6
			c3.2,0.7,6.5,1.2,9.7,1.8c1,0.2,2,0.3,3,0.7c-2,0.3-4-0.3-5.9-0.4c-1.6-0.1-3.2-0.3-4.7-0.5c-4.4-0.6-8.8-1.2-13.1-2.1
			c-2.6-0.5-5.1-1.1-7.6-2c-1.9-0.7-3.4-2.3-3.4-4.7c0-3.2,1.5-5.9,3.1-8.5c2.1-3.4,4.7-6.3,7.6-9.1c3-3,6.2-5.7,9.6-8
			c3-2,6.3-3.5,9.6-4.8c3.2-1.3,6.5-2.2,9.9-2.9c1.7-0.4,3.5-0.8,5.3-0.6c0-0.1,0.1-0.1,0-0.2c-0.3-0.4,0.1-1.2-0.3-1.3
			c-0.6-0.2-1.4-0.2-2.1-0.1c-1.4,0.3-2.9,0.3-4.3,0.5c-1.8,0.2-3.5,0.5-5.3,0.9c-2.7,0.5-5.4,1.3-8,2.2c-4,1.4-7.7,3.3-11.3,5.5
			c-4.7,2.9-8.8,6.5-12.5,10.6c-0.3,0.3-0.5,0.3-0.8,0.1c-0.2-0.2-0.4-0.4-0.6-0.6c-0.3-0.3-1-0.7-1-1c0-0.4,0.5-0.8,0.9-1.2
			c3.5-3.4,7.2-6.7,11.4-9.3c3.3-2.1,6.7-3.8,10.3-5.3c3.3-1.4,6.7-2.3,10.1-3.1c2.2-0.5,4.5-0.9,6.8-1.1c2-0.1,3.9-0.5,5.9-0.5
			c0.5,0,0.6-0.2,0.5-0.6c-0.3-1.1-0.2-2.3-0.5-3.4c-0.2-0.6,0.1-0.8,0.7-0.8c2.3,0,4.6,0,6.9,0c0.5,0,0.9,0,0.7,0.7
			c-0.3,1.2-0.1,2.4-0.4,3.6c-0.1,0.4-0.1,0.7,0.6,0.8c3.1,0.2,6.2,0.8,9.2,1.5c3,0.7,5.8,1.6,8.6,2.9c0.7,0.3,1.3,0.5,1.7-0.6
			c0.8-2.3,1.6-4.6,1.9-7c0.4-3.3,0.2-6.6-0.8-9.8c-0.7-2.3-2-4.3-3.6-6.1c-1.6-1.9-3.5-3.5-5.5-4.9c-2.2-1.5-4.5-2.7-7-3.7
			c-2.2-0.9-4.6-1.4-6.9-2c-0.5-0.1-1-0.1-1.6-0.2c-0.6-0.2-0.7,0.5-0.8,0.8c-0.2,1-0.5,1.9-0.9,2.9c-0.9,2.5-2.1,4.9-3.5,7.2
			c-1.6,2.7-3.5,5.1-5.7,7.3c-1.9,2-4.1,3.7-6.3,5.3c-2.6,1.8-5.4,3.4-8.4,4.4c-4.3,1.3-8.7,0.7-11.5-3.5c-1.1-1.7-1.7-3.6-1.3-5.8
			c0.7-3.2,1.8-6.2,3.6-8.9c3.2-5,7.6-8.6,13-11c3.5-1.6,7.1-2.5,10.8-3.2c2.2-0.4,4.3-0.5,6.5-0.7c0.3,0,0.5,0,0.5-0.4
			c0.4-2.6,0.1-5.2-0.2-7.8c-0.1-0.8-0.7-1.2-1.4-1.6c-1.4-0.7-2.7-1.6-3.9-2.4c-1.1-0.8-2.4-1.2-3.7-1.7c-3.4-1.4-7-1.6-10.5-1.4
			c-3.7,0.2-7.3,1-10.8,1.9c-2.8,0.7-5.5,1.6-8.2,2.3c-4.2,1-8.5,2.1-12.8,3c-4.4,0.9-8.8,1-13.2,0.9c-2.3-0.1-4.6-0.5-6.9-1.2
			c0.1,1.5,0.2,3,0.4,4.4c0.2,0.9,0.1,1.8,0.2,2.7c0.1,1.2,0.2,2.4,0.3,3.6c0.1,2.2,0.2,4.4,0.5,6.5c0.2,1.6,0.3,3.2,0.4,4.8
			c0.2,2.5,0.4,5,0.7,7.4c0.2,1.5,0.3,3,0.4,4.6c0.1,2.1,0.4,4.1,0.5,6.1c0,1,0.5,2,0,3c-0.3-0.4-0.5-1.2-0.5-1.8
			c-0.3-2.2-0.5-4.4-0.9-6.5c-0.3-1.6-0.4-3.2-0.6-4.8c-0.3-2.1-0.5-4.3-0.9-6.4c-0.3-1.6-0.4-3.3-0.6-4.9c-0.4-3-0.5-6-1.1-9
			c-0.4-2-0.5-4.1-0.8-6.2c-0.3-2.1-0.5-4.2-0.9-6.3c-0.1-0.2-0.1-0.5,0.1-0.7c0.1-0.1,0.3,0,0.5,0.1c2.5,1,5,1.8,7.7,2
			c0.1,0,0.1,0.1,0.2,0.1c-0.5-6-1.4-11.8-1.7-17.8c1.3,0.6,2.5,1.4,3.8,1.7c2,0.5,4,1,6.1,1.2c2.9,0.3,5.9,0.1,8.8,0.1
			c2.1,0,4.3-0.1,6.4-0.2c1.5-0.1,3-0.1,4.4-0.4c1.1-0.3,2.3-0.5,3.4-0.4c2,0.2,3.9,0.1,5.8,0c1.8,0,3.5-0.5,5.3-0.6
			c0.3,0,0.7-0.1,1-0.1c1.7,0.1,3.5-0.3,5.2-0.1c2.2,0.2,4.5,0.3,6.6,1c0.2,0.1,0.4,0,0.7,0.1c0.2,0.3,0.5,0.2,0.8,0.1
			c-0.2-0.1-0.4-0.2-0.6-0.2c-1.7-1.3-3.7-1.8-5.7-2.5c-2.8-1-5.6-1.6-8.5-2.2c-1.5-0.3-3-0.7-4.5-0.8c-2.9-0.1-5.6-1-8.4-1.4
			c-1.6-0.2-3.3-0.4-4.8-0.8c-3.9-1.1-8-1.8-11.8-3.6c-1.1-0.5-2.2-1.1-3.4-1.7c0.2,4,0.8,7.9,0.4,11.9c-0.5-2.6-0.9-5.3-1.4-7.9
			c-0.5-2.5-0.9-5-1.3-7.6c0-0.2-0.4-0.4-0.1-0.6c0.3-0.1,0.5,0.1,0.6,0.3c1,1.1,2.3,1.8,3.5,2.6c2.2,1.4,4.7,2.2,7.1,3
			c2.3,0.8,4.7,1.4,7.1,1.8c2.1,0.4,4.3,0.7,6.4,1.1c0.8,0.1,1.7,0.2,2.5,0.4c0.5,0.1,0.6-0.1,0.9-0.4c2.1-2.7,4.2-5.4,6.5-8
			c1.9-2.1,4-4.1,6.3-5.7c2.6-1.8,5.3-3.3,8.5-4.2c2.1-0.6,4.2-0.9,6.3-0.9c2.2,0,4.4,0.1,6.5,0.8c0.5,0.2,0.9,0.2,1.2-0.3
			c1.1-1.8,2.2-3.6,2.8-5.7c0.6-1.9-0.4-3.1-1.7-4.2c-1.3-1-2.7-2-4.3-2.6c1.3-0.2,2.6,0.1,3.7,0.5c1.2,0.4,2.5,1,3.6,1.7
			c1.2,0.8,2,2.3,1.7,3.7c-0.2,0.8-0.2,1.6-0.6,2.5c1.8-0.6,3.4-1.2,5.1-1.4c0.8-0.1,1.7-0.2,2.5-0.2c1.9-0.1,3.8-0.4,5.7-0.8
			c2.3-0.5,4.6-1.2,6.5-2.8c2.7-2.3,2.2-5,0-6.9c-1.2-1.1-2.9-0.8-4.3-0.1c-3.2,1.5-5.6,3.9-7.2,7.2c0.1-1.8-0.2-3.5-0.7-5.1
			c-0.5-1.8-1.4-3.4-2.7-4.7c-2-2.1-3.7-4.4-5.5-6.7c-0.3-0.4-0.6-0.5-1-0.5c-2.7,0.1-5.4,0.4-8.1,0.9c-4.4,0.8-8.5,2.4-12.3,4.5
			c-3.1,1.6-6,3.6-8.7,5.8c-2.5,2-4.8,4.2-7,6.5c-2.3,2.5-4.4,5.3-6.4,8.1c-1.7,2.4-3.1,5-4.5,7.5c-0.8,1.3-1.3,2.8-2.1,4.3
			c-0.4-1.3-0.9-2.6-1.3-3.8c-0.7-2.6-1.8-5-2.7-7.5c-0.6-1.6-1.2-3.1-1.8-4.6c-0.1-0.3-0.3-0.6-0.7-0.2c-1.4,1.3-3,2.4-5,2.9
			c-2.7,0.6-5.4,0.7-8-0.2c-3.4-1.1-6-3.4-7.7-6.6c-0.8-1.4-1.5-2.9-1.9-4.5c-0.5-1.8-0.5-3.6-0.3-5.5c0.4-3,1.6-5.6,3.1-8
			c1.2-2,2.8-3.7,4.5-5.3c1.5-1.4,3.1-2.7,5-3.6c0.4-0.2,0.3-0.3,0.2-0.6c-0.7-2.1-1.1-4.2-1.3-6.4c-0.3-3.2,0-6.3,1-9.4
			c0.9-2.7,2.5-5,4.4-7.1c2.3-2.5,4.9-4.5,8-5.9c2.6-1.2,5.2-1.9,8.1-2.2c3.3-0.4,6.5,0.1,9.6,0.9c2.8,0.7,5.4,1.9,8,3.3
			c0.4,0.2,0.8,0.3,1.2-0.1c2.5-2.3,5.4-4.1,8.6-5.1c2.3-0.8,4.7-1.1,7.2-1.2c2.9-0.1,5.6,0.4,8.3,1.4c2.8,1.1,5.1,2.9,6.8,5.4
			c1.5,2.2,2.5,4.7,2.7,7.4c0.4,4.2-1,7.5-4,10.3c-1.7,1.6-3.7,2.6-6.1,2.5c-0.3,0-0.6,0-0.9,0c1,3.2,2.2,6.2,4,9
			c0.9,1.4,1.8,2.8,2.7,4.2c0.3,0.4,0.6,0.7,1.2,0.6c2.9-0.4,5.8-0.7,8.3-2.2c1.7-1,2.5-3.5,1.7-5.8c-0.5-1.3-1.1-2.5-2.5-3.1
			c-2.1-0.9-4.7,0-5.4,2c-0.4,1,0.4,3.4,1.7,4.4c0.3,0.2,0.6,0.4,1,0.6c-1,0.3-1.9,0.2-2.9-0.7c-2.1-1.7-3.3-3.7-1.7-6.4
			c0.9-1.6,2.7-2.5,4.5-3c3.2-0.9,7.2,0.8,8.7,3.7c0.9,1.7,0.9,3.5,0.3,5.3c-0.8,2.8-2.8,4.3-5.3,5.3c-2.4,0.9-5,1.4-7.6,1.6
			c-0.1,0.4,0.3,0.7,0.5,1c1.6,2.1,3.2,4.2,4.5,6.4c0.9,1.4,1.6,2.9,1.8,4.5c1-0.9,2-2,3.1-2.8c3.6-2.6,7.4-2.4,10.5,0.8
			c1.7,1.8,2.1,4.1,1.5,6.5c-0.4,1.9-1,3.7-2.5,5c-1.3,1.1-2.8,1.9-4.5,2.5c-3.7,1.4-7.6,2.1-11.4,3.2c-3,0.9-6.1,1.7-8.3,4
			c-1.7,1.8-3.2,1.3-5,1.2c-1.8-0.1-3.6-0.2-5.5,0.1c-0.5,0.1-1.2,0.1-1.7,0c-1.2-0.3-2.4,0-3.5,0.4c-2.8,0.9-5.7,1.6-8.3,2.9
			c-1.5,0.8-2.9,1.7-4.2,2.7c-1.9,1.6-3.6,3.4-5.2,5.3c-0.4,0.5-0.8,1-1.3,1.4c-0.2,0.2-0.4,0.4-0.3,0.6c0,0.2,0.4,0.2,0.6,0.3
			c3.8,0.6,7.6,1.4,11.3,2.7c4.7,1.7,9.2,3.7,13,7c2.5,2.1,4.6,4.6,6.1,7.5c0.9,1.7,1.7,3.5,2.3,5.4c0.7-2.4,1.7-4.6,3-6.5
			c2.4-3.5,5.3-6.5,8.9-8.7c0.5-0.3,1-0.6,1.6-0.8c1.2-0.4,1.3-1.3,1.4-2.3c0.3-2.4,0.9-4.7,1.7-6.9c1-3,2-6,2.5-9.2
			c0.2-1.1,0.5-2.3,0.1-3.5c-0.1-0.4,0.1-0.6,0.5-0.7c2.5-0.4,4.7,0.2,6.5,1.9c2.2,2.1,3.5,4.6,3.2,7.7c-0.1,1.6-0.6,3.2-0.8,4.8
			c-0.1,0.8-0.3,1.7,0.2,2.5c0.1,0.3,0.2,0.5,0.7,0.4c1.1-0.3,2.3-0.5,3.4-0.7c0.7-0.1,1.2-0.5,1.5-1.1c1.2-2.2,1.6-4.7,2.1-7.1
			c0.1-0.7,0.1-1.4,0.3-2.2c-0.7-0.2-1.4,0.2-2.2,0.2c-2.4,0-4.3-0.9-5.5-3c-1-1.6-1.6-3.3-1.7-5.2c0-0.4,0-0.5,0.4-0.6
			c3.6-0.7,6.7-2.6,9.4-5.1c0.4-0.4,0.9-0.8,1.3-1.2c0.4-0.5,0.8-0.1,1.2,0c2.3,1.2,4,3,5.1,5.5c0.2-2.7,0.6-5.2,1.2-7.7
			c0.7-3.2,1.4-6.5,3.4-9.4c1.4-2,4.5-2.9,6.8-2.4c0.7,0.2,1.7,0.1,2.1,0.7c0.3,0.5-0.4,1.3-0.5,2c-0.9,3.4-1.5,6.9-2.2,10.4
			c-0.4,1.9-0.5,3.9-1,5.8c1.3-1.6,2.6-3.1,4.1-4.5c2.1-2.2,4.3-4.3,7-5.8c2.7-1.5,5.6-0.7,7.6,1c0.6,0.5,1.3,1,1.7,1.8
			c0.2,0.3,0.1,0.5-0.1,0.7c-1.7,1.3-3.2,2.8-4.7,4.3c-0.9,0.9-1.9,1.8-2.7,2.9c1.1-0.4,2.3-0.8,3.4-1.2c2.2-0.8,4.4-1.1,6.6-0.4
			c1.5,0.4,3.4,2.6,3.6,4.1c0.1,0.4-0.2,0.5-0.5,0.6c-3.2,1.4-6,3.2-8.6,5.6c-2.5,2.3-4.6,4.9-6.4,7.8c-0.7,1-0.6,2.3-0.8,3.5
			c-0.5,2.2-0.9,4.4-1.4,6.6c-0.2-2.1,0.2-4.1,0.3-6.5c-1.2,2.1-2,4.1-2.7,6.1c-0.2,0.6-0.4,1.2-0.7,1.8c-0.2,0.5,0,0.6,0.4,0.6
			c3.2,0,6.3-0.3,9.4-1.2c1.5-0.4,2.8-1.1,4.4-2c-0.7,6.1-1.3,11.9-2,17.9c2.1-0.2,4.2-0.5,6.2-1.2c0.6-0.2,1.1-0.4,1.6-0.6
			c0.5-0.3,0.7-0.1,0.6,0.4c-0.2,1.4-0.4,2.8-0.6,4.2c-0.2,1.7-0.5,3.4-0.7,5.1c-0.3,2.1-0.6,4.2-1,6.2c-0.3,1.6-0.5,3.2-0.7,4.9
			c-0.3,2.2-0.6,4.3-0.9,6.5c-0.3,2.1-0.5,4.1-0.8,6.2c-0.3,2.1-0.6,4.1-0.9,6.1c-0.2,1.7-0.4,3.3-0.6,5c-0.1,0.6,0,1.3-0.7,1.8
			c-0.2-1.1,0.1-2.3,0.2-3.3c0.2-1.5,0.3-3.1,0.5-4.6c0.2-2.7,0.5-5.3,0.8-8c0.2-1.7,0.2-3.5,0.4-5.2c0.3-2.4,0.4-4.8,0.9-7.2
			c0.3-1.4,0.3-2.8,0.5-4.3c0.2-2.6,0.3-5.3,0.7-7.9c0.1-0.8-0.1-1.7,0.4-2.6c-4.6,1.6-9.1,1.5-13.6,1.3c-2.7-0.1-5.5-0.6-8.2-1.2
			c-1.2-0.3-2.4-0.5-3.6-0.8c-0.3-0.1-0.6,0.1-0.8,0.3c-1.2,1.4-2.4,2.9-3.8,4.2c-1.1,1-2.4,1.9-3.6,2.8c-0.4,0.3-0.3,0.4-0.1,0.7
			c2.8,3.1,4.5,6.8,5.2,10.9c0.4,2.7,0.4,5.5,0.1,8.3c-0.4,3.6-1.5,7-3.1,10.2c-1.5,2.9-3.4,5.4-5.7,7.7c-2.8,2.9-6.1,5.1-9.6,7.1
			c-0.5,0.3-1.4,0.2-1.4,0.9c0,0.5,0.9,0.6,1.4,1c0.7,0.5,1.6,0.9,2.2,1.6c0.1,0.1,0.2,0,0.3,0.1c0.4,0.8-0.6,1.1-0.7,1.8
			c-0.4-0.1-0.6,0.6-1.2,0.2c-2.8-2-5.7-3.8-8.7-5.4c-0.7-0.4-1-0.1-1.3,0.4c-2.3,3.2-5.4,5.5-8.6,7.6c0,0-0.1,0-0.2,0
			C135,199.5,135,199.4,134.9,199.4z M176.4,110.3c-0.1-0.1-0.1-0.1-0.2-0.2c0-0.1,0.1-0.2,0.1-0.4c1.7-3.2,3.8-6,5.8-9
			c2.1-3,4.5-5.8,7-8.4c1-1,1.9-2,2.9-2.9c0.2-0.2,0.7-0.5,0.6-0.8c-0.1-0.4-0.6-0.5-1-0.6c-1.2-0.4-2.3-0.1-3.3,0.4
			c-1.8,0.9-3.4,2.2-4.8,3.6c-1.4,1.4-2.7,2.8-4,4.3c-2.5,2.8-4.7,5.8-6.8,8.9c-0.7,1-1.2,2-2.2,2.9c0.6-1.8,1.2-3.5,1.7-5.2
			c0.7-2.5,1.4-4.9,1.9-7.4c0.4-2.1,0.9-4.2,1-6.4c0.1-1.2,0.1-2.5,0.3-3.7c0.2-1.5,0.5-2.9,0.8-4.4c0-0.2,0.2-0.7-0.3-0.7
			c-0.6,0-1.1-0.1-1.6,0.3c-1.1,0.8-1.9,1.8-2.4,3c-0.9,2-1.4,4.1-1.9,6.2c-0.5,2-0.8,4.1-0.9,6.2c-0.2,3-0.9,5.9-2,8.7
			c-0.2,0.6-0.4,1.2-1.1,1.7c0.2-1.6,0.3-3.2,0.1-4.8c-0.4-2.8-1.7-5.1-3.5-7.2c-0.2-0.2-0.5-0.3-0.8-0.1c-0.3,0.2-0.5,0.4-0.7,0.6
			c-2.3,1.5-4.9,2.5-7.5,3.4c-0.5,0.2-0.9,0.4-0.3,0.9c0.1,0.1,0.2,0.3,0.3,0.5c0.9,1.4,2.4,2.3,4.1,1.8c0.9-0.2,1.6-0.6,2.3-1.2
			c0.7-0.7,0.9-0.2,1,0.4c0.2,0.9,0.4,1.7,0.5,2.7c0.2,2.7,0.2,5.3-0.2,8c-0.2,1.2-0.4,2.4-0.9,3.5c1.6-0.2,3.1-0.5,4.6-0.7
			c1.3-0.2,2.6-0.2,3.9-0.4c2.6-0.6,5.3-1,7.9-1.8c2.5-0.8,5-1.7,7.3-2.9c2.8-1.4,4.6-3.8,6.7-6c1.1-1.2,2.3-2.2,3.6-3.2
			c0.9-0.7,1.9-1.3,2.9-1.9c0.5-0.3,0.5-0.4,0.2-0.6c-0.8-0.6-1.8-1-2.8-0.9c-1.6,0.1-3.1,0.7-4.5,1.5c-3.6,2-6.5,4.8-9.3,7.7
			C179.1,107,177.8,108.7,176.4,110.3z M99.1,38.1c-0.9-1-1.8-1.9-2.9-2.6c-2.4-1.7-5-3-7.9-3.7c-2.5-0.6-5.1-1.1-7.7-0.7
			c-2.2,0.3-4.5,0.5-6.6,1.4c-2.4,1-4.5,2.5-6.2,4.5c-1.5,1.8-2.7,3.7-3.4,5.8c-0.7,2-1.2,4.1-1.4,6.2c-0.2,2-0.2,4,0.1,5.9
			c0.5,2.7,1.2,5.4,2.8,7.7c0.2,0.3,0.2,0.4-0.2,0.6c-3.1,1-6,2.5-8.6,4.3c-2.2,1.5-4,3.4-5.2,5.7c-1.6,3-2.1,6.2-1.2,9.5
			c1.2,4.5,3.7,7.9,8.6,8.9c3.3,0.7,6.1-0.4,8.5-2.7c0.2-0.2,0.3-0.4,0.1-0.7c-1.1-2.3-2.3-4.7-3.6-7c-0.8-1.3-1.5-2.6-2.3-3.9
			c0.6-0.2,1.2-0.2,1.8-0.3c2-0.1,3.9,0.3,5.5,1.6c2.4,1.8,3.1,5.1,2.1,7.8c-0.3,1-0.3,1.8,0.3,2.7c0.2,0.4,0.5,0.7,0.7,1.1
			c1.2,2.2,2.4,4.3,3.5,6.5c0.2,0.4,0.4,0.4,0.6,0.1c1.5-2.4,3.3-4.7,5-7c1.5-2,3.2-3.9,4.9-5.8c1-1.2,2.3-2.2,3.4-3.4
			c1.5-1.6,3.1-3,4.9-4.2c2.4-1.6,5-3,7.6-4.1c3.4-1.4,6.9-2.5,10.4-3.3c3.5-0.8,7.1-1.3,10.7-1.6c-0.5-0.9-0.9-1.8-1.4-2.6
			c-1.9-3.2-3.3-6.6-4.3-10.1c-0.2-0.7-0.1-1.6-0.8-2.1c-0.6-0.4-1.2-0.7-1.8-1.1c-1.2-0.8-2-2-2.3-3.4c-0.3-1.6-0.2-3.3,0.6-4.8
			c1-2.1,2.4-3.7,4.7-4.4c0.5-0.2,0.6,0,0.6,0.4c0,3.2-0.2,6.4,0.5,9.6c0.2,1,0.7,1.6,1.7,1.4c1.8-0.4,3.4-1.1,4.7-2.5
			c2.5-2.9,2.5-7.4,0.1-10.5c-1.9-2.4-4.3-4.2-7.3-5.2c-2.4-0.8-4.8-1.3-7.4-0.9c-2.2,0.4-4.2,1.1-6.2,2.2
			C102.7,34.7,100.9,36.4,99.1,38.1z M145.9,189.2c1.3,0.7,2.6,1.3,3.8,2c0.2,0.1,0.3,0,0.5,0c2.4-1.1,4.6-2.6,6.7-4.2
			c1.9-1.5,3.7-3.1,5.2-5c2.9-3.7,4.9-7.8,5.7-12.5c0.6-3.3,0.6-6.6,0.1-9.8c-0.6-3.8-2-7.4-4.3-10.6c-0.4-0.5-0.6-0.7-1.3-0.5
			c-0.6,0.2-1.1,0.4-1.7,0.4c-3.1,0.5-6.2,0.9-9.4,0.8c-3.9-0.1-7.7-0.7-11.1-2.8c-2-1.2-3.7-2.8-4.9-4.9c-0.9-1.7-0.3-3.2,1.2-4
			c2.3-1.2,4.7-1.2,7.1-1.2c2.2,0,4.4,0.2,6.6,0.8c4.2,1.2,8.1,2.8,11.6,5.4c0.8,0.6,1.4,0.7,2.3,0.1c2.2-1.4,4.4-2.9,6.1-4.9
			c-0.3-0.3-0.5-0.4-0.8-0.5c-4.7-1.2-9.4-2.7-14.2-3.7c-2.5-0.5-5.1-0.9-7.6-1c-2.5-0.1-4.9,0.1-7.4,0.6c-1.9,0.4-3.7,0.8-5.4,1.8
			c-2.3,1.3-4.5,2.9-7,3.9c-2.2,0.9-4.3,1.6-6.7,1.1c-0.4-0.1-0.6,0-0.4,0.6c0.2,0.8,0.3,1.6,0.3,2.4c0,1.3,0,2.7,0,4
			c0,0.5,0.2,0.6,0.6,0.6c1.4,0.1,2.8,0.1,4.1,0.4c3.4,0.8,6.7,1.8,9.8,3.5c3.5,1.9,6.4,4.5,8.9,7.6c1.6,2,2.8,4.3,3.7,6.7
			c1,2.5,1.7,5.1,1.7,7.8c0,1.3,0,2.5,0,3.8c-0.1,2.1-0.6,4.1-1.2,6.1C147.8,185.7,146.9,187.4,145.9,189.2z M115.5,152.8
			c-1.2,0.1-2.3,0.1-3.5,0.2c-3,0.2-5.9,0.9-8.7,1.9c-3.5,1.3-6.6,3.3-9.4,5.7c-2.2,1.9-4.2,4.1-5.5,6.8c-0.9,1.9-1.7,4-1.2,6.2
			c0.5,2.2,2.1,4,4.6,4c2.6,0.1,4.9-0.9,7.1-2.1c0.7-0.4,1.4-0.9,2.2-1.2c0.7-0.3,1.1-1,1.7-1.5c1-0.7,1.9-1.6,2.7-2.4
			c0.8-0.8,1.3-1.8,2.1-2.4c1.3-1.1,2.2-2.5,3-3.9c0.8-1.4,1.6-2.8,2.3-4.3C114,157.6,114.8,155.3,115.5,152.8z M184.6,111.1
			c-2.2,1-4.4,1.8-6.7,2.4c-2.7,0.8-5.4,1.6-8.3,1.8c-1.9,0.2-3.8,0.6-5.8,0.9c-2.2,0.4-4.5,0.6-6.7,1.1c-2.6,0.7-5.3,0.9-7.9,1.5
			c-4,1-7.9,2.3-11.6,4c-3,1.4-5.7,3.5-7.9,6c-0.2,0.2-0.4,0.3-0.2,0.6c0.3,0,0.5-0.2,0.7-0.4c0.8-0.6,1.6-1.2,2.4-1.7
			c2.4-1.2,4.7-2.3,7.3-3c3.6-1,7.3-1.7,10.9-1.8c5.2-0.1,10.5-0.3,15.7,0.4c3.1,0.5,6.3,0.6,9.5,0.6c0.6,0,1.1-0.1,1.7,0.2
			c0.3,0.1,0.7,0,0.9-0.4c0.6-1.4,1.3-2.8,1.9-4.3c0.6-1.4,1.2-2.7,1.9-4.1C183.2,113.8,183.9,112.5,184.6,111.1z M139.5,120.1
			c2.6-1.2,5.1-2,7.7-2.6c0.9-0.2,1.6-0.5,1.3-1.7c0-0.1,0-0.2,0-0.4c0.2-2.1,0.7-4.1,0.7-6.2c0-2.7-1.7-4-3.7-4.7
			c-0.4-0.1-0.7,0-0.6,0.5c0.1,0.6-0.2,1.2-0.3,1.8c-0.9,2.8-2.3,5.4-3.3,8.1C140.6,116.6,139.9,118.2,139.5,120.1z M159.8,144.9
			c-0.5-0.4-1-0.8-1.5-1.1c-2.8-1.6-5.8-2.7-9-3.4c-2.3-0.5-4.6-0.6-6.9-0.5c-0.7,0-1.5,0.1-2.2,0.5c-0.9,0.4-1,1-0.4,1.7
			c0.7,0.8,1.6,1.2,2.6,1.6c1.9,0.9,3.8,1.4,5.8,1.9c1.6,0.4,3.2,0.5,4.7,0.5C155.2,146.1,157.5,145.9,159.8,144.9z M69.8,85.6
			c0.1-3.2-1.7-5.8-4-6.1C67.2,81.5,68.4,83.5,69.8,85.6z M116.5,43c-1.5,1.9-1.6,3.9,0,5.1C116.3,46.4,116.1,44.7,116.5,43z
			 M128.7,130.5c0.1-0.1,0-0.1-0.1-0.1c-0.1,0-0.2,0-0.2,0.1c0,0,0.1,0.1,0.1,0.1C128.6,130.6,128.6,130.5,128.7,130.5z"/>
		<path class="st1" d="M189.3,229.9c-1.2,0.9-2.7,1.5-4.1,2.1c-6.1,2.5-12.4,4.2-18.8,5.6c-3.7,0.8-7.5,1.5-11.3,2
			c-5,0.7-10.1,1.2-15.1,1.6c-4.7,0.4-9.5,0.5-14.2,0.6c-5.7,0.2-11.4,0.1-17.1,0c-2.7-0.1-5.3-0.2-8-0.3c-2.6-0.1-5.3-0.6-7.9-0.7
			c-2.1-0.1-4.1-0.5-6.1-0.6c-2.1-0.2-4.3-0.6-6.4-0.9c-1.8-0.3-3.6-0.5-5.3-0.8c-1.9-0.3-3.8-0.8-5.7-1.2c-3.2-0.7-6.3-1.5-9.4-2.4
			c-3.6-1.1-7.2-2.3-10.7-3.9c-1.3-0.6-2.6-1-3.8-2c0.6-0.1,1,0.1,1.5,0.2c2.7,0.8,5.5,1.5,8.2,2.2c2.5,0.6,5,1.2,7.5,1.7
			c3.3,0.7,6.7,1.3,10.1,1.9c2.6,0.4,5.2,0.8,7.7,1.2c1.6,0.3,3.3,0.4,4.9,0.6c2,0.3,4.1,0.5,6.1,0.7c0.8,0.1,1.6,0.1,2.4,0.2
			c2.4,0.2,4.8,0.5,7.2,0.6c2.3,0.1,4.6,0.1,6.9,0.3c5.9,0.4,11.8,0.4,17.7,0.3c5.2-0.1,10.5-0.3,15.7-0.8c4.1-0.4,8.2-0.8,12.3-1.3
			c4-0.5,8-1.1,12-1.8c4.6-0.8,9.1-1.7,13.7-2.7c3.1-0.7,6.1-1.6,9.2-2.3C188.7,229.9,189,229.8,189.3,229.9L189.3,229.9z"/>
		<path class="st1" d="M170.9,239c-1.4,0.6-2.8,1.2-4.2,1.7c-3.5,1.3-7,2.5-10.6,3.4c-4.1,1.1-8.3,2.1-12.5,2.7
			c-8.9,1.4-17.9,1.5-26.8,1.4c-3.2,0-6.4-0.1-9.6-0.3c-5.9-0.5-11.8-1.1-17.6-2.2c-5.4-1-10.8-2.4-16-4.3c-2.1-0.8-4.2-1.6-6.5-2.6
			C101.9,245.1,136.4,245.7,170.9,239z"/>
		<path class="st1" d="M58,223.4c2.4-2.4,4.8-4.8,6.8-6.8c-0.4,0.7-1,1.9-1.4,3.1c-1,2.7,0,4.6,2.1,6.1c1.7,1.2,3.7,2,5.7,2.7
			c3.9,1.4,7.9,2.1,11.9,2.8c3,0.5,6,0.8,9,1.2c3.5,0.4,7.1,0.8,10.6,1c3.4,0.2,6.7,0.5,10.1,0.6c1.4,0,2.9,0.2,4.3,0.1
			c0.7,0,0.6,0.6,0.9,0.9c0.4,0.3,1.1,0.7,0.9,1.1c-0.2,0.5-1,0.2-1.5,0.2c-1.9,0-3.8,0-5.6-0.1c-2.7-0.1-5.3-0.3-8-0.4
			c-3-0.2-5.9-0.4-8.9-0.7c-3.2-0.3-6.4-0.7-9.6-1.1c-5.6-0.7-11.1-1.7-16.5-3.3c-2.8-0.8-5.6-1.8-7.9-3.7c-1.1-0.9-2-1.9-2.2-3.4
			C58.7,222.4,58,223.6,58,223.4z"/>
		<path class="st1" d="M115.1,191c-1.9,0.8-3.5,1.7-5,2.7c-4.5,2.8-8.3,6.3-11.3,10.7c-2.5,3.6-4.1,7.6-5,11.9
			c-0.5,2.2-0.8,4.3-0.8,6.6c0,0.7-0.3,0.8-0.9,0.7c-1.4-0.4-2.9-0.5-4.3-1c-0.6-0.2-0.9-0.5-0.8-1.2c0.7-5.7,2.6-11,5.8-15.8
			c2.4-3.6,5.4-6.7,9-9.1c3.2-2.2,6.7-3.8,10.5-4.8C113.2,191.3,114,190.9,115.1,191z"/>
		<path class="st1" d="M146.8,195.7c1.8,0.9,3.5,2.1,5,3.4c4.5,3.7,8,8.2,10.8,13.2c1.4,2.5,2.5,5.1,3.3,7.8
			c0.6,2.3,0.2,3.4-1.9,4.6c-2.6,1.5-5.5,2.3-8.4,2.9c-2.9,0.6-5.7,1.1-8.7,1.4c-2.5,0.3-5.1,0.5-7.6,0.8c-0.1,0-0.1-0.1-0.3-0.2
			c3.7-0.6,7.2-1.2,10.7-2.2c3.5-0.9,6.9-2,9.8-4.2c0.6-0.5,1.2-1,1.7-1.6c0.7-1,0.7-2,0.3-3.2c-1.6-4.4-3.7-8.6-6.3-12.5
			c-2.3-3.5-5-6.8-8.3-9.6c-0.1-0.1-0.3-0.2-0.5-0.3C146.6,195.8,146.7,195.8,146.8,195.7z"/>
		<path class="st1" d="M127.9,176.3c-4.9,0-9.7,0-14.6,0C117.2,170.4,123.6,170.6,127.9,176.3z"/>
		<path class="st1" d="M134.5,195.5c-2,0.3-3.1,1.1-3.4,2.5c-0.3,1.5,0.4,3.1,1.6,3.9c1.8,1.1,2.6,1,4.9-0.8c0.3,1-0.6,2.4-2,3.1
			c-1.9,1-4.2,0.4-5.9-1.5c-1.5-1.8-1.7-4.3-0.4-6C130.4,195.1,132.6,194.6,134.5,195.5z"/>
		<path class="st1" d="M92.4,89.3c0.8-2.9,1.8-5.6,4.2-7.6c1.6-1.3,3.7-1.3,5.5,0c-1.3,0.4-2.5,0.9-3.6,1.7
			c-2.1,1.5-3.8,3.3-5.4,5.2C92.9,88.9,92.8,89.3,92.4,89.3L92.4,89.3z"/>
		<path class="st1" d="M126.2,75.3c-3.5-1.2-6.8-0.4-10.1,0.9c0.3-1.9,2.3-3.6,4.1-3.6c2.4-0.1,4.3,1.1,6.1,2.6
			C126.2,75.2,126.2,75.2,126.2,75.3z"/>
		<path class="st1" d="M92.4,89.3c0,0.1,0,0.1-0.1,0.2c0,0,0,0,0-0.1C92.3,89.4,92.4,89.3,92.4,89.3L92.4,89.3z"/>
		<path class="st1" d="M135.1,199.5c-0.1,0.2-0.2,0.2-0.3,0.1c0.1-0.1,0.1-0.2,0.2-0.3C135,199.4,135,199.5,135.1,199.5z"/>
		<path class="st1" d="M189.3,229.9c0-0.2,0.1-0.2,0.2-0.2c0,0,0,0,0.1,0C189.5,229.8,189.4,229.8,189.3,229.9L189.3,229.9z"/>
		<path class="st1" d="M126.3,75.2c0.1,0.1,0.1,0.2,0.2,0.2c-0.1,0-0.2,0-0.3-0.1C126.2,75.2,126.2,75.2,126.3,75.2z"/>
		<path class="st1" d="M116.5,48.1"/>
		<path class="st1" d="M106.4,122.4c0.2,0.1,0.4,0.1,0.6,0.2c-0.3,0.1-0.6,0.2-0.8-0.1C106.3,122.5,106.3,122.4,106.4,122.4z"/>
		<path class="st1" d="M128.7,130.5c0,0-0.1,0.1-0.1,0.1c0,0-0.1-0.1-0.1-0.1c0-0.1,0-0.2,0.2-0.1
			C128.7,130.3,128.7,130.4,128.7,130.5z"/>
		<path class="st1" d="M176.1,110.6c-0.1,0.1-0.2,0.2-0.2,0.3l0,0C175.8,110.8,175.9,110.7,176.1,110.6
			C176.1,110.6,176.1,110.6,176.1,110.6z"/>
		<path class="st1" d="M176,110.5c0-0.2,0-0.3,0.2-0.4c0.1,0.1,0.1,0.1,0.2,0.2C176.3,110.4,176.2,110.5,176,110.5
			C176.1,110.6,176.1,110.6,176,110.5z"/>
		<path class="st1" d="M175.9,111c0,0-0.1,0-0.1,0C175.8,110.9,175.8,110.9,175.9,111C175.9,111,175.9,111,175.9,111z"/>
	</g>
</g>
</svg>
