<?xml version="1.0" encoding="utf-8"?>
<!-- Generator: Adobe Illustrator 22.0.1, SVG Export Plug-In . SVG Version: 6.00 Build 0)  -->
<svg version="1.1" id="Layer_1" xmlns="http://www.w3.org/2000/svg" xmlns:xlink="http://www.w3.org/1999/xlink" x="0px" y="0px"
	 viewBox="0 0 70 60" style="enable-background:new 0 0 70 60;" xml:space="preserve">
<style type="text/css">
	.st0{fill:#FFFFFF;}
</style>
<g id="Expanded">
	<g>
		<g>
			<path class="st0" d="M53,53H39V40h-8v13H17V32c0-0.6,0.4-1,1-1s1,0.4,1,1v19h10V38h12v13h10V33c0-0.6,0.4-1,1-1s1,0.4,1,1V53z"/>
		</g>
		<g>
			<path class="st0" d="M58,32c-0.2,0-0.5-0.1-0.7-0.3L35,10.4L12.7,31.7c-0.4,0.4-1,0.4-1.4,0c-0.4-0.4-0.4-1,0-1.4L35,7.6
				l23.7,22.7c0.4,0.4,0.4,1,0,1.4C58.5,31.9,58.3,32,58,32z"/>
		</g>
		<g>
			<path class="st0" d="M50,20c-0.6,0-1-0.4-1-1v-6h-6c-0.6,0-1-0.4-1-1s0.4-1,1-1h8v8C51,19.6,50.6,20,50,20z"/>
		</g>
	</g>
</g>
</svg>
